<?xml version="1.0" encoding="UTF-8"?>
<svg version="1.1" xmlns="http://www.w3.org/2000/svg" width="512" height="512">
<path d="M0 0 C4.48507663 2.64724268 7.31703567 6.94398814 9.5625 11.5625 C9.5625 12.5525 9.5625 13.5425 9.5625 14.5625 C10.614375 14.81 11.66625 15.0575 12.75 15.3125 C17.92224649 16.82454787 21.05892061 19.4534621 23.8125 24.0625 C27.50907429 31.45564857 27.09156397 37.81724159 24.5625 45.5625 C25.28179687 45.40265625 26.00109375 45.2428125 26.7421875 45.078125 C38.47269425 42.93348942 49.30795777 45.50434337 59.26953125 51.88671875 C63.57853155 55.03588592 67.37389374 58.44368015 70 63.125 C71.61642869 65.64662875 72.90277095 66.66100534 75.3125 68.375 C84.29076473 74.82812777 90.17016956 83.24906627 92.24609375 94.15234375 C93.93192333 106.99378638 91.1663937 118.06445291 83.5625 128.5625 C76.73548482 137.18609812 67.27551917 141.80626735 56.5625 143.5625 C57.46871094 144.09617188 58.37492188 144.62984375 59.30859375 145.1796875 C67.41487568 150.08870206 73.48482878 155.20063465 79.5625 162.5625 C81.93311678 165.04752878 84.36106161 167.20348231 87.0625 169.3125 C93.6693235 175.06446649 98.47176008 182.49701072 103.5625 189.5625 C104.62981988 191.03283414 105.69752896 192.50288584 106.765625 193.97265625 C108.93493485 196.96316734 111.09540851 199.95980714 113.25 202.9609375 C115.50614786 206.10208622 117.77814011 209.23087308 120.0625 212.3515625 C136.97732431 235.49553437 136.97732431 235.49553437 136.5625 248.5625 C136.0625 251.0625 136.0625 251.0625 135.5625 252.5625 C136.12533691 252.40241455 136.68817383 252.2423291 137.26806641 252.07739258 C152.801723 248.59149326 170.21244083 251.77444648 183.8203125 259.6484375 C190.34971984 264.20600103 195.97462961 269.91799579 201.5625 275.5625 C205.25701184 274.01318859 207.59580068 271.72737502 210.4375 268.9375 C225.09976512 255.46301466 241.54660767 250.54945331 261.26953125 251.1796875 C278.27633641 252.14182307 292.18896996 260.14746662 303.4609375 272.671875 C304.59912707 274.00062119 305.73208142 275.33387234 306.859375 276.671875 C308.60615157 278.61095724 310.44269019 280.25683347 312.4375 281.9375 C325.48790867 293.14162992 334.03830238 307.18664715 335.5625 324.5625 C335.63228121 328.23099794 335.62220504 331.89395707 335.5625 335.5625 C336.35011719 335.83578125 337.13773437 336.1090625 337.94921875 336.390625 C340.5625 337.5625 340.5625 337.5625 342.375 340.3125 C343.59566827 343.65327631 343.81413055 346.0396723 343.5625 349.5625 C344.55830078 349.69205078 344.55830078 349.69205078 345.57421875 349.82421875 C349.88089058 350.50951397 352.96870558 351.16259764 356.625 353.625 C359.22845346 357.57217137 359.98119137 360.85222207 359.5625 365.5625 C358.40465641 368.96527367 356.78904492 371.68160298 353.80999756 373.82113647 C350.66713476 374.85784676 348.51543372 374.17191671 345.29003906 373.48681641 C333.40050918 371.80164023 322.38040772 371.7707223 312.28344727 379.07312012 C299.61456087 389.21679941 288.58781168 401.41806255 277.59536219 413.32238317 C272.35110347 418.99559855 266.99992611 424.56473295 261.64453125 430.1328125 C256.17439403 435.82190465 250.71355925 441.51746649 245.32977295 447.28866577 C244.51351944 448.15909012 243.69726593 449.02951447 242.85627747 449.92631531 C241.33905329 451.54641349 239.82831231 453.17261894 238.32554626 454.80613708 C232.74286033 460.74951002 227.61190603 464.16646815 219.375 464.8125 C203.72239992 463.78609999 194.54820886 450.56525033 184.56176758 439.82861328 C178.89919813 433.74393288 173.14433038 427.74860791 167.38414001 421.75646973 C163.03571841 417.22513167 158.72263466 412.66859776 154.47607422 408.04150391 C134.56963893 384.32219651 134.56963893 384.32219651 107.2618866 372.9045105 C100.96602446 372.66162993 94.79301616 373.31226574 88.61645508 374.50537109 C85.5625 374.5625 85.5625 374.5625 82.73706055 372.71728516 C79.270792 369.28253875 78.46295846 367.13263541 78.4375 362.3125 C78.47875 361.075 78.52 359.8375 78.5625 358.5625 C75.9225 358.8925 73.2825 359.2225 70.5625 359.5625 C73.39378388 367.47990067 76.22758373 375.39639927 79.0625 383.3125 C79.48690369 384.4977829 79.91130737 385.6830658 80.34857178 386.90426636 C84.98851606 399.85905638 89.64027522 412.80924091 94.3515625 425.73828125 C94.90798431 427.26535202 94.90798431 427.26535202 95.47564697 428.82327271 C97.22954285 433.63382047 98.98690666 438.44307647 100.74804688 443.25097656 C101.37631516 444.97069835 102.0045711 446.69042464 102.6328125 448.41015625 C102.91734283 449.18378006 103.20187317 449.95740387 103.49502563 450.75447083 C106.71752531 459.58549998 108.05888104 467.31718626 104.66015625 476.359375 C101.52239603 482.65722826 96.82271485 487.41750783 90.2109375 489.93359375 C81.70099947 491.95439024 73.33291148 491.61013497 65.69140625 487.19140625 C61.74737473 484.17367938 58.17438872 480.32586843 57.078125 475.375 C56.90796875 474.776875 56.7378125 474.17875 56.5625 473.5625 C54.57195124 472.86812253 52.56994615 472.20639782 50.5625 471.5625 C45.91860721 468.1986205 43.52469823 465.36539489 41.0234375 460.10546875 C40.73076996 459.49317917 40.43810242 458.88088959 40.13656616 458.25004578 C37.16127403 451.92023574 34.64173223 445.4216777 32.1875 438.875 C31.14701378 436.13787512 30.10071148 433.4029813 29.0546875 430.66796875 C28.77919067 429.94577148 28.50369385 429.22357422 28.21984863 428.47949219 C24.66665729 419.18302856 20.9828472 409.93815954 17.3125 400.6875 C8.98406545 379.67632991 0.75845341 358.62564967 -7.4375 337.5625 C-8.0975 337.5625 -8.7575 337.5625 -9.4375 337.5625 C-13.32821032 345.76226483 -16.68636765 354.13525609 -19.93893433 362.60174561 C-21.47159849 366.59015273 -23.01582758 370.57408583 -24.55859375 374.55859375 C-24.87818558 375.38474182 -25.1977774 376.21088989 -25.52705383 377.06207275 C-28.9370609 385.86941617 -32.40142686 394.65506931 -35.875 403.4375 C-36.18291473 404.21603333 -36.49082947 404.99456665 -36.80807495 405.79669189 C-38.06115553 408.96467901 -39.31425131 412.13266002 -40.56776428 415.30047607 C-42.86570438 421.10993379 -45.15334239 426.92339248 -47.4375 432.73828125 C-50.83081737 441.3748523 -54.23808127 450.0057751 -57.66802979 458.62786865 C-58.37524203 460.40596865 -59.08100178 462.18464617 -59.78662109 463.96337891 C-60.86547208 466.66866946 -61.95916307 469.36712355 -63.0625 472.0625 C-63.34472412 472.77301514 -63.62694824 473.48353027 -63.91772461 474.21557617 C-66.97855842 481.55954477 -71.24285106 486.3112677 -78.49609375 489.640625 C-85.975468 491.98475823 -93.78437548 491.74260615 -100.9375 488.5 C-106.25841775 485.40562773 -110.52431953 481.62817728 -112.3125 475.625 C-112.35375 474.944375 -112.395 474.26375 -112.4375 473.5625 C-113.283125 473.35625 -114.12875 473.15 -115 472.9375 C-121.74024964 470.24140014 -125.69227548 466.028247 -128.7109375 459.4921875 C-131.83785586 451.18736131 -130.64889272 443.80596508 -127.546875 435.71875 C-126.89997348 433.95457999 -126.25351398 432.19024785 -125.60742188 430.42578125 C-125.25703857 429.4836377 -124.90665527 428.54149414 -124.5456543 427.57080078 C-122.96221267 423.27223991 -121.44626157 418.95067855 -119.92614746 414.62939453 C-118.28136303 409.95852853 -116.61893211 405.29401847 -114.95654297 400.62939453 C-114.10066255 398.22377449 -113.24753264 395.81717431 -112.39697266 393.40966797 C-111.1514395 389.88531606 -109.89700733 386.36424655 -108.640625 382.84375 C-108.26246643 381.76782593 -107.88430786 380.69190186 -107.49468994 379.58337402 C-107.13711609 378.58713013 -106.77954224 377.59088623 -106.41113281 376.56445312 C-105.94649628 375.25595398 -105.94649628 375.25595398 -105.47247314 373.92102051 C-104.38456126 371.44186198 -103.24119978 369.58037462 -101.4375 367.5625 C-100.4475 367.2325 -99.4575 366.9025 -98.4375 366.5625 C-97.34366529 364.80833766 -97.34366529 364.80833766 -96.625 362.6875 C-96.35042969 361.98882812 -96.07585937 361.29015625 -95.79296875 360.5703125 C-95.14423069 358.25354023 -95.14423069 358.25354023 -97.4375 355.5625 C-96.25026591 348.00529836 -93.69521759 340.83363971 -91.1875 333.625 C-90.81753906 332.48998047 -90.44757813 331.35496094 -90.06640625 330.18554688 C-89.49986328 328.56422852 -89.49986328 328.56422852 -88.921875 326.91015625 C-88.42252441 325.44074585 -88.42252441 325.44074585 -87.91308594 323.94165039 C-86.4375 321.5625 -86.4375 321.5625 -83.28222656 320.22827148 C-82.3434668 320.00856689 -81.40470703 319.7888623 -80.4375 319.5625 C-80.293125 318.634375 -80.14875 317.70625 -80 316.75 C-79.4375 313.5625 -79.4375 313.5625 -78.4375 310.5625 C-79.0975 309.5725 -79.7575 308.5825 -80.4375 307.5625 C-80.05714949 304.05648816 -78.91790599 301.02071729 -77.58300781 297.77514648 C-68.88387269 275.66877279 -63.92045508 252.70659666 -58.74658203 229.57299805 C-57.43733855 223.71964239 -56.09866474 217.87346267 -54.75159836 212.02871037 C-53.70949891 207.49395472 -52.68177772 202.95603701 -51.65854645 198.41699028 C-51.1699838 196.2570485 -50.67714284 194.0980697 -50.17989349 191.94011116 C-49.49305017 188.94888412 -48.82550692 185.95399138 -48.16308594 182.95727539 C-47.95653885 182.07481644 -47.74999176 181.19235748 -47.53718567 180.28315735 C-46.55397889 175.73171606 -46.00565548 172.78900935 -48.4375 168.5625 C-48.78393555 167.89387939 -49.13037109 167.22525879 -49.48730469 166.53637695 C-50.04272949 165.55350708 -50.04272949 165.55350708 -50.609375 164.55078125 C-56.53398452 153.84777774 -61.20623941 143.36892257 -64.4375 131.5625 C-64.77652344 130.3765625 -65.11554688 129.190625 -65.46484375 127.96875 C-73.4686935 94.03537778 -65.16875814 58.85419708 -47.4375 29.5625 C-41.9481003 21.24801175 -35.24104161 13.81328638 -28.4375 6.5625 C-27.1071875 5.1084375 -27.1071875 5.1084375 -25.75 3.625 C-18.7453498 -2.62239072 -8.71197858 -3.65936672 0 0 Z M-6.4375 93.5625 C-8.32885871 101.17697795 -8.68606955 108.36459671 -8.5625 116.1875 C-8.55347656 117.28707031 -8.54445313 118.38664062 -8.53515625 119.51953125 C-8.51184124 122.20075758 -8.4791204 124.88150607 -8.4375 127.5625 C-4.08031464 128.73077769 0.27957318 129.88811834 4.64233398 131.03540039 C6.12620206 131.42725839 7.60928601 131.82209825 9.09155273 132.2199707 C11.22180451 132.79122336 13.35464235 133.35170704 15.48828125 133.91015625 C16.15088455 134.09030777 16.81348785 134.27045929 17.49617004 134.45606995 C20.74287293 135.29463003 22.30655147 135.64781618 25.5625 134.5625 C25.10359375 134.12679687 24.6446875 133.69109375 24.171875 133.2421875 C21.28645965 130.44163731 18.78528914 127.91465057 16.625 124.5 C14.70484554 121.76523456 13.34288321 120.52241938 10.6875 118.625 C3.27666773 113.27655148 -0.10612914 107.77956746 -3.359375 99.234375 C-4.3959963 96.40478124 -4.3959963 96.40478124 -6.4375 93.5625 Z M64.5625 220.5625 C63.86298937 222.976262 63.17766081 225.39260234 62.5 227.8125 C62.30083984 228.49441406 62.10167969 229.17632812 61.89648438 229.87890625 C60.53173313 234.74678611 60.53173313 234.74678611 61.5625 239.5625 C63.10130489 238.01769587 64.61808825 236.4509306 66.125 234.875 C67.39537109 233.56982422 67.39537109 233.56982422 68.69140625 232.23828125 C70.84635663 229.73849656 70.84635663 229.73849656 70.4296875 226.875 C69.47422501 224.32710002 68.410829 222.55869532 66.5625 220.5625 C65.9025 220.5625 65.2425 220.5625 64.5625 220.5625 Z M45.5625 292.5625 C47.17957629 297.14840014 48.79702712 301.73416797 50.41479492 306.31982422 C50.96274434 307.87317512 51.51059912 309.42655941 52.05834961 310.97998047 C55.53819889 320.84859063 59.03400341 330.71116676 62.5625 340.5625 C63.2225 340.5625 63.8825 340.5625 64.5625 340.5625 C65.21605469 339.75425781 65.86960938 338.94601562 66.54296875 338.11328125 C70.83008324 334.49169553 74.42654069 334.78465451 79.875 334.75 C80.80634766 334.72486328 81.73769531 334.69972656 82.69726562 334.67382812 C84.98610186 334.61514002 87.27303426 334.57872832 89.5625 334.5625 C89.41917236 333.87140137 89.27584473 333.18030273 89.12817383 332.46826172 C87.50698437 324.5157021 86.97734531 316.65198357 86.5625 308.5625 C85.51964844 308.88476562 84.47679687 309.20703125 83.40234375 309.5390625 C76.92934531 311.26431742 70.41653257 311.76352612 64.1875 308.9375 C59.32297125 306.11229312 56.39451787 302.5290877 54.1875 297.3125 C52.74761904 294.18377437 52.74761904 294.18377437 48.9609375 293.390625 C47.83945313 293.11734375 46.71796875 292.8440625 45.5625 292.5625 Z " fill="#3F2F62" transform="translate(139.4375,9.4375)"/>
<path d="M0 0 C3.93638008 2.11958927 6.60292907 4.24390596 9 8 C10.156262 12.48346489 9.91995498 16.43433136 7.55859375 20.453125 C5.46844053 23.07109468 3.27132129 25.5375643 1 28 C-17.94141715 49.45100554 -26.35259055 72.75046801 -25.15966797 101.43505859 C-24.6398857 109.78495538 -22.86986217 115.96851455 -17.3046875 122.28125 C-10.41471393 127.41953538 -1.96655233 129.23211355 6.25213051 131.20266342 C8.28731419 131.69146399 10.31930452 132.19199553 12.35087585 132.69558716 C18.12081387 134.1238018 23.8954817 135.53231608 29.67260742 136.93115234 C33.22628808 137.79247797 36.77624875 138.66798113 40.32445335 139.55157852 C41.66128658 139.88146061 42.99944131 140.20604249 44.33898354 140.52474594 C61.12526428 144.51992472 73.31094973 150.95944886 83.125 165.25 C84.24762057 166.84450906 85.37135714 168.43823286 86.49609375 170.03125 C87.06956543 170.84851563 87.64303711 171.66578125 88.23388672 172.5078125 C91.1575789 176.63347601 94.17521902 180.68882544 97.1875 184.75 C107.23156566 198.3483113 107.23156566 198.3483113 111.93359375 205.0625 C113.16561916 206.81388584 114.42092709 208.54978232 115.72265625 210.25 C119.05719617 214.85705237 119.53506667 218.63556625 119.46875 224.2890625 C118.26890327 231.22817607 113.96782686 235.51767074 109.25 240.375 C107.89305212 241.79670604 106.53628642 243.21858598 105.1796875 244.640625 C104.13893066 245.7244043 104.13893066 245.7244043 103.07714844 246.83007812 C99.81625045 250.23662036 96.59698429 253.68170939 93.375 257.125 C92.75931152 257.77919922 92.14362305 258.43339844 91.50927734 259.10742188 C88.42096893 262.39185211 85.36025453 265.69628449 82.34375 269.046875 C81.75932129 269.69124512 81.17489258 270.33561523 80.57275391 270.99951172 C79.47397772 272.21331653 78.38201042 273.43333475 77.29833984 274.66064453 C73.51332577 278.82675842 70.61277923 280.66645371 65.0625 281.375 C60.42299761 280.80689767 57.44153715 278.60550346 54.3515625 275.1640625 C51.95749624 271.33078878 52.4077592 267.36167933 53 263 C55.49523837 257.55584356 60.23916022 253.66373554 64.4765625 249.51953125 C67.24984643 246.75054033 69.79910049 243.85175981 72.34375 240.875 C74.05464535 238.93813734 75.84483792 237.12393052 77.6875 235.3125 C82.21581138 230.8452445 85.52011856 227.34665144 86.44921875 220.8671875 C85.81272922 215.38784283 83.16960188 212.37601254 79.8125 208.125 C79.18843262 207.30652588 78.56436523 206.48805176 77.92138672 205.64477539 C75.96374597 203.08359031 73.98391314 200.54086937 72 198 C70.11819304 195.56848363 68.23999034 193.13429724 66.3659668 190.69677734 C65.22154066 189.21163929 64.07082439 187.7313233 62.91333008 186.25634766 C62.39794678 185.59296387 61.88256348 184.92958008 61.3515625 184.24609375 C60.89604004 183.66529053 60.44051758 183.0844873 59.97119141 182.48608398 C59 181 59 181 59 179 C57.02 179.33 55.04 179.66 53 180 C52.77449463 180.88014771 52.77449463 180.88014771 52.54443359 181.77807617 C49.86165992 192.22223777 47.14418508 202.64747397 44.125 213 C41.12767457 223.30173195 38.45541099 233.68354569 35.80322266 244.078125 C35.48272949 245.33367187 35.16223633 246.58921875 34.83203125 247.8828125 C34.52475098 249.09356445 34.2174707 250.30431641 33.90087891 251.55175781 C32.85941893 255.53809406 31.71679993 259.49007406 30.5222168 263.43310547 C29.15008503 270.17765591 30.477703 275.33145554 32.796875 281.59375 C33.097146 282.43178665 33.39741699 283.2698233 33.70678711 284.133255 C34.71059471 286.9261196 35.73026651 289.7129148 36.75 292.5 C37.47262031 294.50055567 38.19427702 296.50145963 38.91503906 298.50268555 C40.86045316 303.89430028 42.82012722 309.28061671 44.78417969 314.66546631 C46.39320126 319.07840183 47.99750259 323.49304726 49.60197449 327.90763855 C52.48269663 335.83366414 55.36538705 343.75896406 58.25463867 351.68188477 C65.4720048 371.48361748 72.5729451 391.32572073 79.64160156 411.1809082 C80.24865181 412.88535599 80.24865181 412.88535599 80.8679657 414.62423706 C81.6198104 416.73582641 82.37101035 418.84764549 83.12141418 420.95974731 C84.61619016 425.15942099 86.12490908 429.3486891 87.71850586 433.51196289 C89.78013122 439.12340155 90.21072446 444.64248171 88.15625 450.33984375 C85.72770517 454.74568352 82.81438531 457.41618432 78.1796875 459.375 C72.89091689 460.89149336 68.6895114 460.8447557 63.75 458.375 C57.68295948 453.13528319 54.87263179 448.08096817 52.1015625 440.6875 C51.74998581 439.77850952 51.39840912 438.86951904 51.03617859 437.9329834 C49.88853385 434.95927348 48.7569425 431.97971802 47.625 429 C46.82313797 426.91552307 46.0199809 424.83154389 45.21557617 422.74804688 C43.58289259 418.51728065 41.95505107 414.28470189 40.33056641 410.05078125 C37.34396874 402.28032231 34.28996417 394.53699452 31.2230835 386.79794312 C30.00821508 383.73210838 28.79602757 380.66521668 27.5838623 377.59831238 C26.97991663 376.07027257 26.375832 374.54228768 25.77160645 373.01435852 C23.50268041 367.27594379 21.24072942 361.53480129 18.98046875 355.79296875 C17.97644631 353.24393947 16.97230265 350.69495798 15.96810913 348.14599609 C15.33796216 346.54574897 14.70824021 344.94533439 14.07901001 343.34472656 C12.6345382 339.67066784 11.18411767 335.99927485 9.71875 332.33349609 C8.51993653 329.33227137 7.36071167 326.31869447 6.21875 323.29541016 C5.62540606 321.76579295 5.03166903 320.23632815 4.4375 318.70703125 C4.05259399 317.65584358 4.05259399 317.65584358 3.65991211 316.5834198 C1.46701199 311.02842067 -1.55034386 307.72482807 -7 305 C-12.22840334 304.47886829 -16.64036754 304.35726466 -21.4375 306.625 C-26.14668645 310.98961183 -28.5972775 316.0091853 -30.85546875 321.94921875 C-31.11370926 322.62130875 -31.37194977 323.29339874 -31.63801575 323.9858551 C-32.1984454 325.44651357 -32.75559759 326.90843289 -33.30981445 328.37145996 C-34.52940179 331.58971177 -35.765897 334.80138753 -37.00149536 338.01351929 C-37.66051269 339.72679178 -38.31876256 341.44035965 -38.97628784 343.15420532 C-43.26068533 354.31095683 -47.67890164 365.41477994 -52.09594727 376.51953125 C-55.86567629 386.00883626 -59.59256565 395.51255033 -63.24737549 405.04678345 C-64.96730576 409.53326546 -66.69843044 414.0154068 -68.43153763 418.49681282 C-69.64417393 421.63506691 -70.84824913 424.77603965 -72.04150391 427.92175293 C-73.37952051 431.44743848 -74.73838289 434.96444984 -76.1015625 438.48046875 C-76.49268219 439.5275853 -76.88380188 440.57470184 -77.28677368 441.65354919 C-80.15177881 448.95826873 -83.70705846 455.80785964 -90.9375 459.5 C-97.98984349 460.65140302 -102.32386975 460.71206842 -108.234375 456.53515625 C-111.79864162 453.43613682 -113.65049335 450.46250122 -114.32089233 445.73910522 C-114.59853605 437.20000263 -111.98663955 429.97025627 -109.0390625 422.1015625 C-108.52667321 420.69491734 -108.01582637 419.28770946 -107.50643921 417.87997437 C-106.17138747 414.20352834 -104.8153486 410.53518178 -103.45465088 406.86816406 C-102.07368925 403.13439656 -100.71374689 399.39299272 -99.3515625 395.65234375 C-97.35777127 390.18698932 -95.35658772 384.72445539 -93.33837891 379.26806641 C-92.9342276 378.17539459 -92.53007629 377.08272278 -92.11367798 375.9569397 C-91.39564408 374.05047932 -90.64947569 372.15426606 -89.86947632 370.27230835 C-88.86497198 367.64711482 -88.70640742 365.78912952 -89 363 C-89.99 361.515 -89.99 361.515 -91 360 C-90.40660742 357.83586237 -89.48412614 355.96620403 -88.53125 353.9375 C-88.3559375 353.298125 -88.180625 352.65875 -88 352 C-88.99 350.515 -88.99 350.515 -90 349 C-88.81276591 341.44279836 -86.25771759 334.27113971 -83.75 327.0625 C-83.38003906 325.92748047 -83.01007813 324.79246094 -82.62890625 323.62304688 C-82.25121094 322.54216797 -81.87351563 321.46128906 -81.484375 320.34765625 C-80.98502441 318.87824585 -80.98502441 318.87824585 -80.47558594 317.37915039 C-79 315 -79 315 -75.84472656 313.66577148 C-74.9059668 313.44606689 -73.96720703 313.2263623 -73 313 C-72.87625 312.071875 -72.7525 311.14375 -72.625 310.1875 C-72 307 -72 307 -70 304 C-69.34378662 303.87181885 -68.68757324 303.7436377 -68.01147461 303.61157227 C-65.79569116 303.18709552 -65.79569116 303.18709552 -64.79907227 300.93725586 C-64.47479248 300.03885986 -64.1505127 299.14046387 -63.81640625 298.21484375 C-63.4488623 297.21831787 -63.08131836 296.22179199 -62.70263672 295.19506836 C-62.13826904 293.58257202 -62.13826904 293.58257202 -61.5625 291.9375 C-61.16562988 290.83349854 -60.76875977 289.72949707 -60.35986328 288.59204102 C-59.22172898 285.40074227 -58.10826436 282.20176992 -57 279 C-56.74041504 278.27296875 -56.48083008 277.5459375 -56.21337891 276.796875 C-51.80372516 264.42254821 -49.30701175 251.4964835 -46.4875946 238.69230652 C-44.7227533 230.70097037 -42.8699738 222.73027709 -41.019104 214.7585144 C-39.8754397 209.82577947 -38.74100752 204.89091311 -37.60528564 199.9563446 C-36.5852476 195.52777347 -35.5572628 191.10118125 -34.52095032 186.6763916 C-33.79776742 183.5777387 -33.08737488 180.47615251 -32.375 177.375 C-32.11517334 176.27961914 -31.85534668 175.18423828 -31.58764648 174.05566406 C-31.36020752 173.0550293 -31.13276855 172.05439453 -30.8984375 171.0234375 C-30.69911621 170.16669434 -30.49979492 169.30995117 -30.29443359 168.42724609 C-29.62812813 162.93436967 -31.7201421 159.54462345 -34.6875 155.0625 C-38.9713385 148.36635622 -42.13550433 141.42203655 -45 134 C-45.38027344 133.02546875 -45.76054688 132.0509375 -46.15234375 131.046875 C-56.11710094 103.52158343 -54.11571674 73.06321997 -42.5859375 46.375 C-35.76151824 31.85209793 -27.44156549 19.43975919 -16.5625 7.6875 C-15.95913818 7.03475098 -15.35577637 6.38200195 -14.73413086 5.70947266 C-10.06347701 0.78904064 -7.06198418 -0.59847324 0 0 Z " fill="#6CC8F6" transform="translate(132,16)"/>
<path d="M0 0 C4.48507663 2.64724268 7.31703567 6.94398814 9.5625 11.5625 C9.5625 12.5525 9.5625 13.5425 9.5625 14.5625 C10.614375 14.81 11.66625 15.0575 12.75 15.3125 C17.92224649 16.82454787 21.05892061 19.4534621 23.8125 24.0625 C27.50907429 31.45564857 27.09156397 37.81724159 24.5625 45.5625 C25.28179687 45.40265625 26.00109375 45.2428125 26.7421875 45.078125 C38.47269425 42.93348942 49.30795777 45.50434337 59.26953125 51.88671875 C63.57853155 55.03588592 67.37389374 58.44368015 70 63.125 C71.61642869 65.64662875 72.90277095 66.66100534 75.3125 68.375 C84.29076473 74.82812777 90.17016956 83.24906627 92.24609375 94.15234375 C93.93192333 106.99378638 91.1663937 118.06445291 83.5625 128.5625 C76.73548482 137.18609812 67.27551917 141.80626735 56.5625 143.5625 C57.46871094 144.09617188 58.37492188 144.62984375 59.30859375 145.1796875 C70.29426373 151.82457494 77.71715992 159.24753706 84.44140625 170.2734375 C87.1831827 174.52495825 90.17106475 178.56551363 93.1875 182.625 C94.08782959 183.83784668 94.08782959 183.83784668 95.00634766 185.07519531 C96.23982463 186.73618605 97.47355098 188.39699162 98.70751953 190.05761719 C101.70422891 194.10423975 104.66948192 198.17323172 107.625 202.25 C108.14852051 202.96744385 108.67204102 203.6848877 109.21142578 204.42407227 C116.92377761 215.07808203 120.56374319 221.98503547 119.5625 235.5625 C117.89354732 243.04711088 111.35155816 248.47733409 106.22216797 253.82617188 C103.85861146 256.29890119 101.5271969 258.80120404 99.19262695 261.30126953 C97.2939649 263.33232758 95.38968094 265.3579873 93.484375 267.3828125 C90.81621664 270.22090873 88.16147774 273.07078876 85.515625 275.9296875 C84.85336914 276.64286133 84.19111328 277.35603516 83.50878906 278.09082031 C82.25252659 279.44415475 80.99906031 280.80009275 79.74902344 282.15917969 C67.32611402 295.51155302 67.32611402 295.51155302 57.6875 295.875 C52.97005619 295.73522389 49.64670684 295.10549671 45.5625 292.5625 C39.04028878 285.54360737 37.12715303 280.41640214 37.22265625 270.85546875 C37.97658928 263.55011765 42.66599839 259.19389447 47.76171875 254.31640625 C50.14135582 251.99871201 52.29660115 249.52913824 54.45703125 247.0078125 C56.1643835 245.02487649 57.89330882 243.0681588 59.63671875 241.1171875 C60.7372593 239.87003882 61.83751806 238.62264141 62.9375 237.375 C63.4739917 236.78066162 64.0104834 236.18632324 64.56323242 235.57397461 C68.40884951 231.19013948 68.40884951 231.19013948 69.5625 225.5625 C67.85827243 223.07656311 67.85827243 223.07656311 65.5625 220.5625 C64.60816997 218.86112452 63.6540505 217.15962983 62.7019043 215.45703125 C60.83387361 212.35098495 58.5782293 209.57228199 56.3125 206.75 C51.5625 200.83251404 51.5625 200.83251404 51.5625 198.5625 C50.9025 198.5625 50.2425 198.5625 49.5625 198.5625 C49.48773438 199.18511719 49.41296875 199.80773437 49.3359375 200.44921875 C48.21996543 208.29384595 46.1805625 215.69701783 43.94897461 223.28686523 C41.90932464 230.25099779 40.10746338 237.24919558 38.39624023 244.30029297 C36.87665402 250.49056202 35.1404337 256.59358747 33.17358398 262.65722656 C29.80587093 273.47698855 30.78181014 281.02034072 34.79296875 291.60546875 C35.25694287 292.87438559 35.71907383 294.14397765 36.17950439 295.41418457 C37.42142123 298.82497184 38.68792698 302.22613685 39.95905685 305.62612534 C41.29338038 309.20910843 42.60375977 312.80082404 43.91625977 316.3918457 C46.07021511 322.27717051 48.23642443 328.15783155 50.41210938 334.03515625 C53.29552925 341.82656397 56.14759733 349.62896918 58.984375 357.4375 C59.40711197 358.6007077 59.82984894 359.76391541 60.26539612 360.96237183 C61.92071277 365.5192303 63.57442929 370.07666782 65.22750854 374.63433838 C66.4364066 377.96731639 67.64582981 381.30010331 68.85546875 384.6328125 C69.24556625 385.70830353 69.63566376 386.78379456 70.0375824 387.89187622 C72.391762 394.37257404 74.77494246 400.84177167 77.17982483 407.30381775 C78.71259771 411.43328683 80.2275769 415.56914311 81.73904419 419.70645142 C82.44157273 421.61651019 83.15194988 423.52370499 83.87106323 425.42758179 C92.50492521 448.30389757 92.50492521 448.30389757 88.58349609 459.31030273 C85.45687258 465.80942439 80.47575868 469.84881842 74.375 473.4375 C67.07255725 475.59231917 59.59658444 475.48676584 52.4765625 472.70703125 C46.89293947 469.36825258 43.81639129 465.97879913 41.0234375 460.10546875 C40.73076996 459.49317917 40.43810242 458.88088959 40.13656616 458.25004578 C37.16127403 451.92023574 34.64173223 445.4216777 32.1875 438.875 C31.14701378 436.13787512 30.10071148 433.4029813 29.0546875 430.66796875 C28.77919067 429.94577148 28.50369385 429.22357422 28.21984863 428.47949219 C24.66665729 419.18302856 20.9828472 409.93815954 17.3125 400.6875 C8.98406545 379.67632991 0.75845341 358.62564967 -7.4375 337.5625 C-8.0975 337.5625 -8.7575 337.5625 -9.4375 337.5625 C-13.32821032 345.76226483 -16.68636765 354.13525609 -19.93893433 362.60174561 C-21.47159849 366.59015273 -23.01582758 370.57408583 -24.55859375 374.55859375 C-24.87818558 375.38474182 -25.1977774 376.21088989 -25.52705383 377.06207275 C-28.9370609 385.86941617 -32.40142686 394.65506931 -35.875 403.4375 C-36.18291473 404.21603333 -36.49082947 404.99456665 -36.80807495 405.79669189 C-38.06115553 408.96467901 -39.31425131 412.13266002 -40.56776428 415.30047607 C-42.86570438 421.10993379 -45.15334239 426.92339248 -47.4375 432.73828125 C-50.83081737 441.3748523 -54.23808127 450.0057751 -57.66802979 458.62786865 C-58.37524203 460.40596865 -59.08100178 462.18464617 -59.78662109 463.96337891 C-60.86547208 466.66866946 -61.95916307 469.36712355 -63.0625 472.0625 C-63.34472412 472.77301514 -63.62694824 473.48353027 -63.91772461 474.21557617 C-66.97855842 481.55954477 -71.24285106 486.3112677 -78.49609375 489.640625 C-85.975468 491.98475823 -93.78437548 491.74260615 -100.9375 488.5 C-106.25841775 485.40562773 -110.52431953 481.62817728 -112.3125 475.625 C-112.35375 474.944375 -112.395 474.26375 -112.4375 473.5625 C-113.283125 473.35625 -114.12875 473.15 -115 472.9375 C-121.74024964 470.24140014 -125.69227548 466.028247 -128.7109375 459.4921875 C-131.83785586 451.18736131 -130.64889272 443.80596508 -127.546875 435.71875 C-126.89997348 433.95457999 -126.25351398 432.19024785 -125.60742188 430.42578125 C-125.25703857 429.4836377 -124.90665527 428.54149414 -124.5456543 427.57080078 C-122.96221267 423.27223991 -121.44626157 418.95067855 -119.92614746 414.62939453 C-118.28136303 409.95852853 -116.61893211 405.29401847 -114.95654297 400.62939453 C-114.10066255 398.22377449 -113.24753264 395.81717431 -112.39697266 393.40966797 C-111.1514395 389.88531606 -109.89700733 386.36424655 -108.640625 382.84375 C-108.26246643 381.76782593 -107.88430786 380.69190186 -107.49468994 379.58337402 C-107.13711609 378.58713013 -106.77954224 377.59088623 -106.41113281 376.56445312 C-105.94649628 375.25595398 -105.94649628 375.25595398 -105.47247314 373.92102051 C-104.40371271 371.48550476 -103.11395812 369.61735973 -101.4375 367.5625 C-96.5625 368.4375 -96.5625 368.4375 -95.4375 369.5625 C-95.8949285 375.76227125 -97.90677389 381.26253655 -100.0078125 387.078125 C-100.3671286 388.08856873 -100.7264447 389.09901245 -101.09664917 390.14007568 C-102.2457784 393.36645192 -103.40409371 396.58944462 -104.5625 399.8125 C-105.31829056 401.93208415 -106.07350409 404.05187415 -106.828125 406.171875 C-112.70565507 422.64977944 -112.70565507 422.64977944 -115.52734375 430.12817383 C-116.01411087 431.423591 -116.01411087 431.423591 -116.51071167 432.74517822 C-117.11234932 434.34002387 -117.71975001 435.93271349 -118.33425903 437.52264404 C-120.81968599 444.11196772 -122.20228081 450.13571789 -119.5078125 456.89453125 C-117.03020138 461.3882377 -114.44217244 463.99240668 -109.4375 465.5625 C-103.57457426 466.12087388 -99.67480757 465.52701372 -94.4375 462.5625 C-89.68340688 457.73564014 -87.54238923 452.61512374 -85.171875 446.33203125 C-84.78137466 445.32573166 -84.39087433 444.31943207 -83.98854065 443.28263855 C-82.71100313 439.98404925 -81.44944152 436.67958346 -80.1875 433.375 C-79.29449439 431.06265573 -78.40019123 428.75081218 -77.50463867 426.43945312 C-75.68226198 421.73421616 -73.86466356 417.02717719 -72.05029297 412.31884766 C-68.00614928 401.84106645 -63.86404091 391.40216268 -59.71798706 380.96438599 C-58.68636103 378.36713191 -57.65541194 375.76961098 -56.625 373.171875 C-56.1164724 371.89001564 -56.1164724 371.89001564 -55.59767151 370.58226013 C-53.36332312 364.93695782 -51.16357126 359.27906015 -48.98200989 353.61315918 C-47.4489531 349.6346723 -45.90556338 345.66022989 -44.36141968 341.68603516 C-43.6295521 339.79381814 -42.90271192 337.89964774 -42.18130493 336.00341797 C-41.18185421 333.37733527 -40.1650702 330.75857086 -39.14453125 328.140625 C-38.85767456 327.37284729 -38.57081787 326.60506958 -38.27526855 325.81402588 C-35.99973202 320.05332212 -32.91835935 314.57518993 -27.41047668 311.39044189 C-23.30301991 309.66678466 -18.78886642 310.05094604 -14.4375 310.5625 C-6.18363866 314.61439557 -3.36627693 321.54075292 -0.2265625 329.67578125 C0.17414963 330.69302277 0.57486176 331.71026428 0.98771667 332.7583313 C2.31256679 336.12737934 3.62497028 339.50113518 4.9375 342.875 C5.86628132 345.24324356 6.79590175 347.61115819 7.72631836 349.97875977 C9.68123888 354.9576072 11.63123805 359.93833531 13.57666016 364.92089844 C16.51399445 372.44330149 19.46444836 379.96049974 22.41796875 387.4765625 C22.89405075 388.68860855 23.37013275 389.9006546 23.86064148 391.14942932 C26.21369192 397.13928795 28.56891757 403.12828038 30.92749023 409.1159668 C31.8293901 411.40668877 32.73116687 413.6974592 33.6328125 415.98828125 C34.0642305 417.08422104 34.4956485 418.18016083 34.94013977 419.30931091 C37.15457624 424.94467547 39.34644612 430.58738011 41.49519348 436.24812317 C42.5798731 439.10269805 43.67791597 441.95201181 44.77828979 444.80056763 C45.46717115 446.60166803 46.13465225 448.41091014 46.80102539 450.22045898 C49.55082954 457.3114829 52.63485201 462.098676 59.5625 465.5625 C65.97017881 466.37343031 71.35553726 465.51179905 76.5625 461.5625 C80.55931621 456.66640014 80.98314606 452.90467882 80.88397217 446.69412231 C80.28925791 440.90071119 78.20518214 435.66712995 76.1640625 430.24609375 C75.69631562 428.96494118 75.23017541 427.68320106 74.76551819 426.40092468 C73.5183084 422.97206454 72.25007929 419.55134023 70.97787094 416.13169098 C69.64365902 412.53321923 68.33004373 408.92724922 67.01489258 405.32177734 C64.88298805 399.48296351 62.74144467 393.64778416 60.59326172 387.81494141 C56.41442744 376.46231438 52.33252246 365.07504125 48.25 353.6875 C46.82044324 349.70391111 45.38941018 345.72085623 43.95703125 341.73828125 C43.60506683 340.75956055 43.25310242 339.78083984 42.89047241 338.77246094 C40.53123425 332.22307547 38.14601624 325.68354243 35.7481842 319.14819336 C34.04783571 314.51075945 32.35568748 309.87035289 30.66421509 305.22967529 C29.85466276 303.01580737 29.04108485 300.80340682 28.22323608 298.59259033 C27.09443508 295.54058294 25.97942818 292.4838552 24.8671875 289.42578125 C24.53067673 288.52715866 24.19416595 287.62853607 23.84745789 286.7026825 C21.39834068 279.90384784 20.87843141 274.34641898 22.69921875 267.26171875 C22.94406006 266.29443848 23.18890137 265.3271582 23.44116211 264.33056641 C23.70807861 263.31397949 23.97499512 262.29739258 24.25 261.25 C24.52400635 260.18185059 24.7980127 259.11370117 25.08032227 258.01318359 C27.03467477 250.44410733 29.09071279 242.90574138 31.21484375 235.3828125 C32.88287539 229.45681079 34.46832401 223.50870377 36.0625 217.5625 C40.38034354 201.49787474 40.38034354 201.49787474 42.4375 194 C42.74204102 192.87561523 42.74204102 192.87561523 43.05273438 191.72851562 C44.44673998 186.67826002 44.44673998 186.67826002 45.5625 185.5625 C48.2109375 184.96875 48.2109375 184.96875 51.5625 185.5625 C54.21130383 188.07476755 56.14891511 191.04783743 58.1875 194.0625 C59.41315025 195.8027262 60.63972997 197.54229809 61.8671875 199.28125 C62.48045898 200.16296875 63.09373047 201.0446875 63.72558594 201.953125 C66.49796136 205.89134251 69.4013266 209.72638984 72.3125 213.5625 C80.13521705 223.91898226 80.13521705 223.91898226 79.5625 230.5625 C77.72749517 234.06569103 75.53767722 236.90395671 72.875 239.8125 C72.09382812 240.66714844 71.31265625 241.52179688 70.5078125 242.40234375 C66.08944494 247.1624026 61.62400619 251.87941249 57.14770508 256.58496094 C48.4800574 265.41898409 48.4800574 265.41898409 46.27734375 277.08203125 C46.68113606 280.59447119 47.95027383 282.24052118 50.5625 284.5625 C54.31071801 286.80362202 56.94916385 286.89293069 61.203125 286.28125 C68.22592528 284.14185389 73.1427003 276.93328308 77.82421875 271.62109375 C81.25612781 267.75151473 84.82288488 264.00885639 88.375 260.25 C89.75920518 258.78003322 91.14332014 257.30998148 92.52734375 255.83984375 C95.07397554 253.13673875 97.62921552 250.44225741 100.19140625 247.75390625 C101.27373217 246.60704885 102.35578113 245.45992998 103.4375 244.3125 C103.93096924 243.80033936 104.42443848 243.28817871 104.93286133 242.76049805 C109.93096842 237.42793851 111.23256982 232.68933852 111.05078125 225.50390625 C110.12472297 219.92533115 106.90865135 215.99770229 103.5625 211.5625 C102.63359639 210.31028007 101.7052434 209.05765155 100.77734375 207.8046875 C98.73163395 205.05674912 96.66920906 202.32224616 94.59765625 199.59375 C91.8955413 196.02367271 89.27510222 192.40355741 86.6875 188.75 C85.87643065 187.61579347 85.0652286 186.48168182 84.25390625 185.34765625 C82.8045407 183.3183248 81.3676236 181.28197916 79.94482422 179.23388672 C67.09779508 160.75925689 56.20472619 152.65632844 34.08237839 147.32927132 C32.03586599 146.83557716 29.99216511 146.33145824 27.94888306 145.8245697 C22.14724875 144.38691109 16.34182108 142.96507856 10.53320312 141.5559082 C6.95894954 140.68802858 3.38836096 139.8062221 -0.18040085 138.91604424 C-1.52893303 138.58263645 -2.87878057 138.25449813 -4.22996902 137.932024 C-14.01730158 135.59492824 -22.80393244 132.87463204 -29.18359375 124.65234375 C-36.61875248 112.26041254 -35.03501848 92.24957814 -31.875 78.625 C-26.77847648 58.98866944 -16.36996235 44.52410246 -2.76171875 29.7421875 C0.6261009 25.6386313 1.27034001 22.16989215 0.98828125 16.8671875 C0.21933074 12.70497832 -1.93523957 10.65034376 -5.25 8.25 C-9.30746478 6.97479678 -12.96372583 6.8353088 -16.8125 8.734375 C-36.73546628 22.60929795 -49.90746127 49.64089021 -55.4375 72.5625 C-55.73527344 73.58601563 -56.03304687 74.60953125 -56.33984375 75.6640625 C-63.88993254 104.26393801 -56.49430865 135.49592967 -42.0625 160.625 C-40.25170723 163.65861896 -38.39713861 166.62304209 -36.4375 169.5625 C-36.56542969 171.73217773 -36.56542969 171.73217773 -37.109375 174.30859375 C-37.31111328 175.29069824 -37.51285156 176.27280273 -37.72070312 177.28466797 C-37.95724609 178.36635254 -38.19378906 179.44803711 -38.4375 180.5625 C-38.80004883 182.28364014 -38.80004883 182.28364014 -39.16992188 184.03955078 C-39.9919477 187.90522461 -40.83623782 191.76569157 -41.6875 195.625 C-41.84123077 196.32457825 -41.99496155 197.02415649 -42.15335083 197.74493408 C-44.64886617 209.09923155 -47.20107374 220.43947911 -49.85546875 231.7578125 C-50.8550975 236.02348603 -51.82584122 240.294155 -52.7714386 244.57202148 C-56.11436374 259.66440797 -59.77243392 274.5211776 -64.6875 289.1875 C-65.09967773 290.41952148 -65.51185547 291.65154297 -65.93652344 292.92089844 C-68.05214309 299.05842601 -70.3597094 304.84458627 -73.4375 310.5625 C-75.8125 310.75 -75.8125 310.75 -78.4375 310.5625 C-80.4375 307.5625 -80.4375 307.5625 -80.17840576 305.17420959 C-79.45349904 302.61889698 -78.59311182 300.23103721 -77.58300781 297.77514648 C-68.88387269 275.66877279 -63.92045508 252.70659666 -58.74658203 229.57299805 C-57.43733855 223.71964239 -56.09866474 217.87346267 -54.75159836 212.02871037 C-53.70949891 207.49395472 -52.68177772 202.95603701 -51.65854645 198.41699028 C-51.1699838 196.2570485 -50.67714284 194.0980697 -50.17989349 191.94011116 C-49.49305017 188.94888412 -48.82550692 185.95399138 -48.16308594 182.95727539 C-47.95653885 182.07481644 -47.74999176 181.19235748 -47.53718567 180.28315735 C-46.55397889 175.73171606 -46.00565548 172.78900935 -48.4375 168.5625 C-48.78393555 167.89387939 -49.13037109 167.22525879 -49.48730469 166.53637695 C-50.04272949 165.55350708 -50.04272949 165.55350708 -50.609375 164.55078125 C-56.53398452 153.84777774 -61.20623941 143.36892257 -64.4375 131.5625 C-64.77652344 130.3765625 -65.11554688 129.190625 -65.46484375 127.96875 C-73.4686935 94.03537778 -65.16875814 58.85419708 -47.4375 29.5625 C-41.9481003 21.24801175 -35.24104161 13.81328638 -28.4375 6.5625 C-27.1071875 5.1084375 -27.1071875 5.1084375 -25.75 3.625 C-18.7453498 -2.62239072 -8.71197858 -3.65936672 0 0 Z M-6.4375 93.5625 C-8.32885871 101.17697795 -8.68606955 108.36459671 -8.5625 116.1875 C-8.55347656 117.28707031 -8.54445313 118.38664062 -8.53515625 119.51953125 C-8.51184124 122.20075758 -8.4791204 124.88150607 -8.4375 127.5625 C-4.08031464 128.73077769 0.27957318 129.88811834 4.64233398 131.03540039 C6.12620206 131.42725839 7.60928601 131.82209825 9.09155273 132.2199707 C11.22180451 132.79122336 13.35464235 133.35170704 15.48828125 133.91015625 C16.15088455 134.09030777 16.81348785 134.27045929 17.49617004 134.45606995 C20.74287293 135.29463003 22.30655147 135.64781618 25.5625 134.5625 C25.10359375 134.12679687 24.6446875 133.69109375 24.171875 133.2421875 C21.28645965 130.44163731 18.78528914 127.91465057 16.625 124.5 C14.70484554 121.76523456 13.34288321 120.52241938 10.6875 118.625 C3.27666773 113.27655148 -0.10612914 107.77956746 -3.359375 99.234375 C-4.3959963 96.40478124 -4.3959963 96.40478124 -6.4375 93.5625 Z " fill="#3C2F63" transform="translate(139.4375,9.4375)"/>
<path d="M0 0 C2.08090943 1.90954042 4.04582864 3.84106654 6 5.875 C6.57645264 6.4723999 7.15290527 7.0697998 7.74682617 7.68530273 C8.8745371 8.87377222 9.98257439 10.08129865 11.06762695 11.30883789 C13.50332649 13.93074475 14.97729371 15.36446486 18.59765625 15.75390625 C23.0077674 13.85581243 25.58523215 10.82253889 28.78125 7.3125 C39.49175711 -3.90803126 51.34570936 -10.70231331 67.06640625 -11.80078125 C76.00735753 -11.98246903 83.34311379 -10.86170811 91.65625 -7.5625 C92.54054688 -7.211875 93.42484375 -6.86125 94.3359375 -6.5 C107.42927383 -0.6263538 116.86629259 10.67981394 122.61328125 23.56640625 C125.18271737 30.6395731 125.99720748 36.90206676 125.96875 44.375 C125.98486328 45.21740234 126.00097656 46.05980469 126.01757812 46.92773438 C126.01822266 47.76498047 126.01886719 48.60222656 126.01953125 49.46484375 C126.02251221 50.20468506 126.02549316 50.94452637 126.02856445 51.70678711 C125.47100944 55.79613325 124.04586856 59.56343287 122.65625 63.4375 C121.41716385 63.44296844 121.41716385 63.44296844 120.15304565 63.44854736 C112.35511932 63.48646805 104.55760948 63.54336681 96.75997734 63.62140274 C92.75142696 63.66085435 88.74309548 63.69305394 84.734375 63.70849609 C80.86319588 63.72367832 76.99261864 63.75815058 73.12170792 63.80580902 C71.64744432 63.82060688 70.17309479 63.8285401 68.69875717 63.82938385 C66.62778874 63.8317603 64.55847465 63.85888889 62.48779297 63.89160156 C60.72240677 63.90492523 60.72240677 63.90492523 58.9213562 63.91851807 C54.21746802 64.66619144 50.93536515 66.75258313 48.05712891 70.54394531 C47.66960449 71.27709961 47.28208008 72.01025391 46.8828125 72.765625 C46.45097656 73.56484375 46.01914062 74.3640625 45.57421875 75.1875 C45.14753906 76.0125 44.72085938 76.8375 44.28125 77.6875 C43.83136719 78.52796875 43.38148438 79.3684375 42.91796875 80.234375 C41.8171983 82.29539202 40.730656 84.36265304 39.65625 86.4375 C38.99625 86.4375 38.33625 86.4375 37.65625 86.4375 C37.31891846 85.35968262 36.98158691 84.28186523 36.6340332 83.17138672 C35.36014512 79.10377194 34.08255938 75.03732591 32.80395508 70.97119141 C32.25512241 69.22410348 31.70724175 67.47671614 31.16040039 65.72900391 C29.59468129 60.72616541 28.01164991 55.72949597 26.39898682 50.74157715 C25.91859268 49.25132498 25.44265845 47.75962456 24.97210693 46.26623535 C24.35617221 44.32056374 23.71589491 42.38264709 23.07421875 40.4453125 C22.72512451 39.37168457 22.37603027 38.29805664 22.01635742 37.19189453 C20.11541692 33.34224263 17.45429297 31.33652148 13.65625 29.4375 C8.31450916 28.830484 5.84046411 30.17644771 1.65625 33.4375 C-0.43538157 36.28313068 -0.43538157 36.28313068 -2.10546875 39.55859375 C-2.42280472 40.1403688 -2.74014069 40.72214386 -3.0670929 41.32154846 C-4.06912257 43.16554821 -5.0505157 45.01960245 -6.03125 46.875 C-6.69979313 48.11597812 -7.36970407 49.3562204 -8.04101562 50.59570312 C-9.27658349 52.87769968 -10.50222113 55.16395557 -11.72143555 57.45483398 C-14.86117691 63.22732762 -14.86117691 63.22732762 -16.34375 65.4375 C-17.00375 65.4375 -17.66375 65.4375 -18.34375 65.4375 C-18.85164063 64.32890625 -19.35953125 63.2203125 -19.8828125 62.078125 C-20.57725299 60.61416937 -21.27261445 59.15065036 -21.96875 57.6875 C-22.30003906 56.95789063 -22.63132812 56.22828125 -22.97265625 55.4765625 C-25.30251393 50.64100883 -27.42319692 47.98599363 -32.34375 45.4375 C-35.7249677 44.82273314 -37.95712532 44.67180006 -41.02734375 46.3671875 C-44.04448998 48.72237324 -46.13946058 51.09297969 -48.10180664 54.40234375 C-53.27061285 62.88106152 -53.27061285 62.88106152 -58.97851562 64.41308594 C-63.14028333 64.76284988 -67.24990947 64.48922727 -71.40625 64.1875 C-72.85850173 64.12719889 -74.31099584 64.0724647 -75.76367188 64.0234375 C-79.29546562 63.89223682 -82.81803233 63.68590211 -86.34375 63.4375 C-89.04116774 56.75098676 -89.86057955 50.8090093 -89.78125 43.625 C-89.77295166 42.65522217 -89.76465332 41.68544434 -89.75610352 40.6862793 C-89.41763631 26.31527499 -83.6778055 15.24445233 -74.34375 4.4375 C-52.95817755 -14.11996555 -23.1266807 -18.27293289 0 0 Z " fill="#F9749D" transform="translate(324.34375,280.5625)"/>
<path d="M0 0 C5.57667582 1.31215902 9.73712444 2.73140197 13.16015625 7.67578125 C16.73269299 13.65561873 18.10916795 19.04250151 16.55078125 26.0078125 C16.07252679 27.68339905 15.54087612 29.34356689 15 31 C15.71929687 30.84015625 16.43859375 30.6803125 17.1796875 30.515625 C28.91019425 28.37098942 39.74545777 30.94184337 49.70703125 37.32421875 C54.01603155 40.47338592 57.81139374 43.88118015 60.4375 48.5625 C62.05392869 51.08412875 63.34027095 52.09850534 65.75 53.8125 C74.72826473 60.26562777 80.60766956 68.68656627 82.68359375 79.58984375 C84.36942333 92.43128638 81.6038937 103.50195291 74 114 C67.97003844 121.61679356 58.95966992 127.19625805 49.31030273 128.77539062 C42.36670031 129.45045289 35.44684507 127.54828391 28.8125 125.6875 C28.04486328 125.48705078 27.27722656 125.28660156 26.48632812 125.08007812 C19.50345377 123.14737168 14.5957384 120.08079196 9.875 114.5 C6.22017927 110.21402549 2.49636881 106.36752885 -1.875 102.8125 C-8.50143844 97.03750337 -12.2908822 90.27785995 -15 82 C-17.26967735 88.43075251 -17.43193658 94.66016946 -17.625 101.4375 C-17.66367188 102.55060547 -17.70234375 103.66371094 -17.7421875 104.81054688 C-17.83590966 107.54020476 -17.92162294 110.26986563 -18 113 C-24.53938928 112.34214527 -27.679695 110.82375517 -32 106 C-38.14978017 94.8185815 -35.95542693 76.03499814 -32.96875 64.2265625 C-28.77563296 50.26077752 -22.46566907 38.72510218 -12.875 27.8125 C-5.13738604 18.99774078 -0.04623351 12.15941189 0 0 Z " fill="#3D3063" transform="translate(149,24)"/>
<path d="M0 0 C1.82867777 2.74301665 2.64550428 4.66178574 3.60058594 7.75927734 C3.90140076 8.72392914 4.20221558 9.68858093 4.512146 10.6824646 C4.83298157 11.72311066 5.15381714 12.76375671 5.484375 13.8359375 C6.17876713 16.03674894 6.8741095 18.23726074 7.5703125 20.4375 C8.66342363 23.90638455 9.75051999 27.37668794 10.82128906 30.85253906 C11.85751783 34.20717479 12.91879762 37.55302672 13.984375 40.8984375 C14.29711365 41.9350351 14.60985229 42.97163269 14.93206787 44.03964233 C16.89657676 50.12550429 18.55758187 53.51065568 24 57 C26.05236302 57.76502234 26.05236302 57.76502234 28 57.625 C28.61875 57.63789063 29.2375 57.65078125 29.875 57.6640625 C38.38998763 55.00312887 41.69868742 45.96948653 45.5625 38.6875 C46.53760774 36.8758231 47.5163224 35.06616018 48.49705505 33.25752258 C49.38779929 31.6108209 50.26951168 29.95924285 51.15063477 28.30737305 C51.76092529 27.21593994 52.37121582 26.12450684 53 25 C53.33572525 24.28780304 53.6714505 23.57560608 54.01734924 22.84182739 C56.83374548 17.41311341 56.83374548 17.41311341 59.94694519 16.31034851 C62.34475077 16.07222879 64.61299748 16.09863644 67.01953125 16.21875 C67.87810226 16.23006958 68.73667328 16.24138916 69.6212616 16.25305176 C72.35397984 16.2977125 75.08137882 16.39803686 77.8125 16.5 C79.6685438 16.54014118 81.52467017 16.57664086 83.38085938 16.609375 C87.92261122 16.69741201 92.46040515 16.83537281 97 17 C92.79357152 22.01482734 88.41177132 26.74133478 83.78881836 31.37231445 C83.09371658 32.07238113 82.39861481 32.77244781 81.68244934 33.49372864 C79.4043332 35.78633705 77.12244124 38.07513507 74.83984375 40.36328125 C74.05724245 41.14870993 73.27464115 41.9341386 72.46832466 42.74336815 C68.33502576 46.89159941 64.19890416 51.03699078 60.06030273 55.17993164 C55.78748767 59.45825357 51.5240437 63.74578917 47.26268673 68.0355196 C43.97948357 71.33732728 40.68961036 74.63242657 37.39785957 77.92571068 C35.82250627 79.50409089 34.24965473 81.08497219 32.67936516 82.66839027 C30.48717735 84.87760821 28.28574895 87.07719484 26.08178711 89.2746582 C25.43593658 89.92972351 24.79008606 90.58478882 24.12466431 91.25970459 C19.84468873 95.50021826 16.72313287 97.75244247 10.5625 98.3125 C2.81130046 97.63257022 -1.55079817 92.87423621 -6.74951172 87.60693359 C-7.50141281 86.85707687 -8.2533139 86.10722015 -9.02799988 85.3346405 C-11.50254411 82.86309593 -13.96620051 80.38099948 -16.4296875 77.8984375 C-18.14688768 76.17817921 -19.86467967 74.45851149 -21.58303833 72.7394104 C-25.17681286 69.14103848 -28.76562541 65.5378169 -32.35058594 61.93066406 C-36.95756663 57.2953164 -41.57325993 52.66876947 -46.19221306 48.04535484 C-49.73559226 44.49783093 -53.27613076 40.94748431 -56.81561661 37.3960762 C-58.51769899 35.68827847 -60.22026268 33.98096029 -61.92330551 32.27412033 C-64.29380368 29.89678944 -66.66087448 27.51610278 -69.02685547 25.13427734 C-69.73743607 24.42257889 -70.44801666 23.71088043 -71.18013 22.97761536 C-71.81934891 22.33268631 -72.45856781 21.68775726 -73.11715698 21.02328491 C-73.67718855 20.46027868 -74.23722012 19.89727245 -74.81422234 19.31720543 C-76 18 -76 18 -76 17 C-75.39526855 16.9906543 -74.79053711 16.98130859 -74.16748047 16.97167969 C-71.4025212 16.91768278 -68.63920094 16.83409606 -65.875 16.75 C-64.92367188 16.73582031 -63.97234375 16.72164063 -62.9921875 16.70703125 C-55.72531799 16.45470939 -51.97116696 14.81478975 -46.625 9.75 C-46.08875 9.1725 -45.5525 8.595 -45 8 C-44.71801758 8.55461914 -44.43603516 9.10923828 -44.14550781 9.68066406 C-42.85492982 12.20791384 -41.5526121 14.72893332 -40.25 17.25 C-39.8065625 18.12269531 -39.363125 18.99539063 -38.90625 19.89453125 C-35.25766445 27.11799039 -35.25766445 27.11799039 -29 32 C-26.88324356 31.93882556 -26.88324356 31.93882556 -24.5625 31.625 C-23.78003906 31.53476562 -22.99757813 31.44453125 -22.19140625 31.3515625 C-19.83053014 31.03348872 -19.83053014 31.03348872 -17 30 C-16.26747751 28.36120989 -15.61234643 26.68738083 -15 25 C-13.95779793 23.08121909 -12.88067609 21.18116879 -11.77734375 19.296875 C-10.84631836 17.70359375 -10.84631836 17.70359375 -9.89648438 16.078125 C-9.25001953 14.97984375 -8.60355469 13.8815625 -7.9375 12.75 C-6.96200195 11.079375 -6.96200195 11.079375 -5.96679688 9.375 C-1.14311027 1.14311027 -1.14311027 1.14311027 0 0 Z " fill="#F8749D" transform="translate(332,351)"/>
<path d="M0 0 C2.8125 -0.3125 2.8125 -0.3125 6 0 C8.86743771 3.42678094 9.8953731 7.44189846 11.125 11.6875 C12.31303338 15.94173294 12.31303338 15.94173294 14 20 C14.66 18.68 15.32 17.36 16 16 C18.8125 15.6875 18.8125 15.6875 22 16 C24.7357919 19.62307576 25.68681182 23.26191642 26.75 27.625 C28.17310432 32.75360488 28.17310432 32.75360488 32.125 36.125 C34.043125 36.558125 34.043125 36.558125 36 37 C37.77451598 37.50814476 39.54528173 38.02952941 41.3125 38.5625 C42.15425781 38.79066406 42.99601562 39.01882812 43.86328125 39.25390625 C46 40 46 40 48 42 C48.375 44.4375 48.375 44.4375 48 47 C45.9765625 48.66015625 45.9765625 48.66015625 44 50 C44.5347998 50.17128418 45.06959961 50.34256836 45.62060547 50.51904297 C48.04081336 51.29807533 50.45788933 52.08641306 52.875 52.875 C53.71675781 53.14441406 54.55851562 53.41382813 55.42578125 53.69140625 C56.23144531 53.95566406 57.03710938 54.21992188 57.8671875 54.4921875 C58.61081543 54.73308105 59.35444336 54.97397461 60.12060547 55.22216797 C62 56 62 56 64 58 C64.125 60.625 64.125 60.625 64 63 C59.66333249 65.32796569 55.47809836 66.78965841 50.75 68.125 C40.88798297 71.23390307 34.46245765 76.66068939 29.5625 85.875 C27.3498503 90.73659652 25.81748453 95.61497228 24.640625 100.8203125 C24 103 24 103 22 105 C19.5625 105.4375 19.5625 105.4375 17 105 C14.36011798 101.35412714 13.1191125 97.60811679 11.875 93.3125 C10.68696662 89.05826706 10.68696662 89.05826706 9 85 C8.4121875 85.99 8.4121875 85.99 7.8125 87 C6 89 6 89 3.5 89.5625 C1 89 1 89 -0.5546875 86.875 C-2.1286007 83.74418887 -2.8426875 80.84727618 -3.625 77.4375 C-4.90912606 72.84951526 -4.90912606 72.84951526 -7.94140625 69.37109375 C-10.27640391 68.33557305 -12.52648454 67.63312558 -15 67 C-16.66927226 66.44528012 -18.33607664 65.88306383 -20 65.3125 C-20.7425 65.08175781 -21.485 64.85101563 -22.25 64.61328125 C-24 64 -24 64 -25 63 C-25.04080783 61.00041636 -25.04254356 58.99954746 -25 57 C-23.02 56.505 -23.02 56.505 -21 56 C-21 55.34 -21 54.68 -21 54 C-21.61746094 53.81824219 -22.23492187 53.63648438 -22.87109375 53.44921875 C-39.48051948 48.51948052 -39.48051948 48.51948052 -41 47 C-41.04080783 45.00041636 -41.04254356 42.99954746 -41 41 C-37.38974563 39.61144063 -33.82779859 38.24195466 -30.11328125 37.15625 C-20.35403568 34.25721675 -12.89601005 29.7302668 -7.41796875 20.953125 C-4.20665561 14.26510094 -2.15496464 7.08387311 0 0 Z " fill="#3C2E61" transform="translate(338,165)"/>
<path d="M0 0 C8.79590094 -0.46114432 8.79590094 -0.46114432 12.9375 1.125 C16.17186816 4.06533469 17.8660711 6.76653868 18.1328125 11.21484375 C17.88772197 15.54717922 17.36062608 17.55615251 14.5625 21 C12 23 12 23 10 24 C7.96829252 23.64130762 5.9436219 23.24257212 3.92285156 22.82666016 C-8.01969755 21.17200085 -19.1569866 21.19007958 -29.2878418 28.51501465 C-41.95384771 38.65599714 -52.97726642 50.858347 -63.96713591 62.75988221 C-69.21139712 68.43309622 -74.5625734 74.00223244 -79.91796875 79.5703125 C-85.38810597 85.25940465 -90.84894075 90.95496649 -96.23272705 96.72616577 C-97.04898056 97.59659012 -97.86523407 98.46701447 -98.70622253 99.36381531 C-100.22344671 100.98391349 -101.73418769 102.61011894 -103.23695374 104.24363708 C-108.81963967 110.18701002 -113.95059397 113.60396815 -122.1875 114.25 C-132.39742889 113.58049647 -137.88140905 109.08532651 -145 102 C-146.30324219 100.71802734 -146.30324219 100.71802734 -147.6328125 99.41015625 C-149.77123925 97.28848833 -151.89299539 95.15280906 -154 93 C-151 93 -151 93 -148.5 94.5 C-141.78569831 97.37755787 -134.94080285 96.77239808 -128.18014145 94.15178299 C-123.95895571 91.92170295 -121.01010736 88.36576153 -117.82861328 84.87255859 C-116.22130833 83.15691805 -114.613806 81.4414624 -113.00613403 79.72616577 C-112.16317905 78.81719921 -111.32022408 77.90823265 -110.45172501 76.97172165 C-106.40087996 72.62550585 -102.28153367 68.34514982 -98.1686933 64.05775571 C-91.87439025 57.49457293 -85.60313255 50.91464192 -79.44140625 44.2265625 C-43.86705588 5.67275289 -43.86705588 5.67275289 -26.07077026 4.90298462 C-20.61754703 4.95334505 -15.32109348 5.59773633 -9.98849487 6.75991821 C-6.30440267 7.05588106 -4.87971109 6.2390777 -2 4 C-0.67206394 1.93299345 -0.67206394 1.93299345 0 0 Z " fill="#E4E4E6" transform="translate(481,360)"/>
<path d="M0 0 C4.56171397 0.81459178 5.7464878 1.90403757 8.5 5.625 C10.19428988 8.86193036 11.74786778 12.03925335 12.5 15.625 C11.6706543 17.47949219 11.6706543 17.47949219 10.5 19.625 C6.58010508 27.80897136 3.25035687 36.19977468 -0.00143433 44.66424561 C-1.53409849 48.65265273 -3.07832758 52.63658583 -4.62109375 56.62109375 C-4.94068558 57.44724182 -5.2602774 58.27338989 -5.58955383 59.12457275 C-8.9995609 67.93191617 -12.46392686 76.71756931 -15.9375 85.5 C-16.3993721 86.66779999 -16.3993721 86.66779999 -16.87057495 87.85919189 C-18.12365553 91.02717901 -19.37675131 94.19516002 -20.63026428 97.36297607 C-22.92820438 103.17243379 -25.21584239 108.98589248 -27.5 114.80078125 C-30.89331737 123.4373523 -34.30058127 132.0682751 -37.73052979 140.69036865 C-38.43774203 142.46846865 -39.14350178 144.24714617 -39.84912109 146.02587891 C-40.92797208 148.73116946 -42.02166307 151.42962355 -43.125 154.125 C-43.40722412 154.83551514 -43.68944824 155.54603027 -43.98022461 156.27807617 C-47.04105842 163.62204477 -51.30535106 168.3737677 -58.55859375 171.703125 C-66.037968 174.04725823 -73.84687548 173.80510615 -81 170.5625 C-85.31935383 168.05058583 -88.98948781 164.99755259 -91.5 160.625 C-92.15234375 157.90625 -92.15234375 157.90625 -92.5 155.625 C-91.73816406 155.65980469 -90.97632812 155.69460938 -90.19140625 155.73046875 C-81.52775284 155.95760573 -73.5177997 155.40480623 -66.82391357 149.25160217 C-61.98308217 143.3040033 -59.39473673 135.19270688 -56.671875 128.09765625 C-56.32585739 127.20822327 -55.97983978 126.31879028 -55.62333679 125.40240479 C-54.88123859 123.49341283 -54.14127731 121.583589 -53.40328979 119.67300415 C-51.81851943 115.57053267 -50.22301389 111.4722622 -48.62815857 107.373703 C-47.80257376 105.25184579 -46.97751463 103.12978397 -46.15296936 101.00752258 C-41.43963618 88.88040183 -36.65597385 76.78127343 -31.85351562 64.68920898 C-28.5391176 56.3391311 -25.24308695 47.9832577 -22.00965881 39.60142517 C-20.46870607 35.60958745 -18.91818436 31.62149741 -17.36697388 27.63363647 C-16.62950208 25.72974183 -15.89671692 23.82402436 -15.16891479 21.91641235 C-14.16094043 19.2754416 -13.13693529 16.64121244 -12.109375 14.0078125 C-11.81734695 13.22968704 -11.52531891 12.45156158 -11.22444153 11.64985657 C-8.96183369 5.92219819 -6.51486084 1.16336801 0 0 Z " fill="#E4E5E6" transform="translate(119.5,327.375)"/>
<path d="M0 0 C0.66 0 1.32 0 2 0 C3.70690474 2.19756551 5.30431436 4.39558115 6.875 6.6875 C7.74603168 7.94235425 8.61840783 9.19627643 9.4921875 10.44921875 C9.91145508 11.05813965 10.33072266 11.66706055 10.76269531 12.29443359 C12.11297665 14.21497619 12.11297665 14.21497619 14.3515625 16.64453125 C16 19 16 19 16.09375 21.4375 C15.42964796 24.30362461 14.75481256 27.156038 14 30 C13.73832031 31.09699219 13.47664063 32.19398438 13.20703125 33.32421875 C11.18685448 40.91973054 8.56058196 45.54823569 3 51 C-7.69962222 61.65777328 -7.69962222 61.65777328 -11.5 75.625 C-11.2541872 81.53133536 -10.47027012 85.69290711 -6.02128601 89.8480072 C-3.85029729 92.15938326 -2.98691611 93.90788028 -1.90942383 96.86938477 C-1.55258011 97.83461563 -1.19573639 98.7998465 -0.82807922 99.79432678 C-0.45813339 100.83286301 -0.08818756 101.87139923 0.29296875 102.94140625 C0.68446609 104.0194603 1.07596344 105.09751434 1.47932434 106.20823669 C2.30427454 108.4900649 3.1234496 110.77398809 3.93725586 113.05981445 C5.17650634 116.53170015 6.44136227 119.99346623 7.70898438 123.45507812 C8.509386 125.67912185 9.30826304 127.90371495 10.10546875 130.12890625 C10.48148727 131.15327286 10.8575058 132.17763947 11.24491882 133.23304749 C12.98427871 138.17641574 14.15149232 142.49165333 14.3684082 147.74194336 C14.67136345 152.80635791 16.2134466 155.14254127 19.44000244 158.93884277 C22.34675426 162.77940809 23.63771622 167.30934546 25.1796875 171.828125 C25.54999084 172.87511063 25.92029419 173.92209625 26.30181885 175.00080872 C27.50570857 178.412849 28.69027496 181.83126373 29.875 185.25 C30.70662349 187.6169992 31.53981112 189.9834494 32.37451172 192.34936523 C33.65271423 195.97302742 34.92987332 199.59701923 36.20181274 203.22288513 C40.74309761 216.16324027 45.45208287 229.04109035 50.17132568 241.9173584 C51.13930899 244.56018957 52.10494621 247.20386828 53.0703125 249.84765625 C53.49706268 251.00803154 53.49706268 251.00803154 53.93243408 252.19184875 C57.15511123 261.02283662 58.49637636 268.75469872 55.09765625 277.796875 C51.95989603 284.09472826 47.26021485 288.85500783 40.6484375 291.37109375 C32.13849947 293.39189024 23.77041148 293.04763497 16.12890625 288.62890625 C11.48651798 285.07684036 8.14615618 280.78229352 7 275 C7.89460938 275.05800781 8.78921875 275.11601562 9.7109375 275.17578125 C18.74164291 275.51274787 25.71334972 274.76309313 32.6171875 268.54296875 C38.39497445 262.06432598 39.54078954 256.0733183 39.34289551 247.66867065 C38.80992838 241.96640617 37.13112828 236.99057678 35.109375 231.66015625 C34.69780655 230.52037323 34.2862381 229.38059021 33.86219788 228.20626831 C32.74496434 225.12518109 31.60846172 222.05211582 30.46271133 218.98154831 C29.25107741 215.71909978 28.06575396 212.44711223 26.87768555 209.17602539 C24.90805481 203.7625057 22.92420379 198.35441327 20.92919922 192.95019531 C18.18886886 185.52554014 15.48134121 178.0892451 12.78515625 170.6484375 C11.9498189 168.34520379 11.11445131 166.04198104 10.27905273 163.73876953 C9.87097382 162.61343811 9.4628949 161.48810669 9.04244995 160.32867432 C7.0019419 154.70265799 4.95975691 149.07725776 2.9140625 143.453125 C2.51342087 142.35159088 2.11277924 141.25005676 1.69999695 140.11514282 C-0.82741112 133.18003306 -3.38769063 126.25784643 -5.96836853 119.34239197 C-7.68681992 114.72906087 -9.38958105 110.11002568 -11.08999634 105.49002075 C-11.89528034 103.31459405 -12.70791194 101.14187097 -13.52841187 98.97213745 C-14.65881811 95.98150228 -15.76357238 92.98250215 -16.86328125 89.98046875 C-17.36627243 88.67955292 -17.36627243 88.67955292 -17.87942505 87.35235596 C-21.31584382 77.79737858 -19.1491796 69.55207978 -16.25 60.125 C-14.14296583 53.03442154 -12.18303472 45.93823816 -10.4375 38.75 C-8.7270941 31.73939652 -6.82499029 24.81700264 -4.74511719 17.9074707 C-2.96877298 11.98466011 -1.42602668 6.01713697 0 0 Z " fill="#E4E4E6" transform="translate(189,208)"/>
<path d="M0 0 C6.76332257 4.95772967 12.6857857 11.56524518 14.58984375 19.8984375 C15.81965622 30.74020535 15.24477289 39.78228456 8.58984375 48.8984375 C2.15664508 56.46617314 -5.22700266 60.1364056 -15.0234375 61.34375 C-25.28581896 61.82594566 -32.96344837 59.59387533 -40.7890625 52.84765625 C-48.37600449 44.98126888 -51.11006496 36.77544323 -51.01733398 25.94116211 C-50.55969056 16.78504787 -46.69279307 9.69274352 -40.09765625 3.3984375 C-28.35610143 -5.91717624 -13.21940813 -7.72492162 0 0 Z " fill="#6DC8F6" transform="translate(192.41015625,67.1015625)"/>
<path d="M0 0 C1.99943542 0.13459778 1.99943542 0.13459778 4 1 C5.13008118 2.66362 5.13008118 2.66362 6.0090332 4.84643555 C6.33964752 5.66357025 6.67026184 6.48070496 7.01089478 7.32260132 C8.73872912 11.9996582 10.32701848 16.71133485 11.85546875 21.45703125 C12.20257401 22.52241623 12.54967926 23.58780121 12.90730286 24.68547058 C13.63470443 26.92101256 14.35982534 29.1572978 15.08276367 31.39428711 C16.19027941 34.82109989 17.3044778 38.24568252 18.41992188 41.66992188 C19.12799018 43.84883293 19.83568566 46.02786518 20.54296875 48.20703125 C20.87523972 49.2299678 21.20751068 50.25290436 21.54985046 51.30683899 C21.8571962 52.25850449 22.16454193 53.21016998 22.48120117 54.19067383 C22.75115402 55.02512527 23.02110687 55.85957672 23.29924011 56.71931458 C23.93884047 58.80095088 24.49518345 60.88213608 25 63 C27.97 63.495 27.97 63.495 31 64 C31.26804443 63.28811523 31.53608887 62.57623047 31.81225586 61.84277344 C33.03022305 58.92766347 34.44623778 56.26336074 36.00390625 53.515625 C36.86725586 51.99001953 36.86725586 51.99001953 37.74804688 50.43359375 C38.34681641 49.38300781 38.94558594 48.33242188 39.5625 47.25 C40.46645508 45.65091797 40.46645508 45.65091797 41.38867188 44.01953125 C45.86099733 36.13900267 45.86099733 36.13900267 47 35 C49.81965942 34.8941391 52.6149552 34.85322226 55.43530273 34.85473633 C56.76206528 34.84969841 56.76206528 34.84969841 58.1156311 34.84455872 C61.05496606 34.83501857 63.99424425 34.83310408 66.93359375 34.83203125 C68.96761601 34.82882083 71.00163803 34.82545693 73.03565979 34.82194519 C77.30543554 34.81594627 81.57519103 34.81410607 85.8449707 34.81469727 C91.32762363 34.81479894 96.81014719 34.80114473 102.29276943 34.78392506 C106.49539288 34.77282973 110.69798481 34.77077729 114.90062141 34.77130699 C116.92251087 34.77012322 118.94440105 34.76567937 120.96627617 34.75797462 C123.7893783 34.74822422 126.61219645 34.75103306 129.43530273 34.75708008 C130.27745834 34.75146057 131.11961395 34.74584106 131.98728943 34.74005127 C137.77168468 34.77168468 137.77168468 34.77168468 140 37 C139.44444444 41.55555556 139.44444444 41.55555556 138 43 C135.36379039 43.05597935 132.75389114 43.0480722 130.11889648 42.99902344 C128.40588574 42.97625068 126.69286745 42.95404043 124.97984314 42.93231201 C123.60973241 42.91313847 123.60973241 42.91313847 122.21194267 42.89357758 C116.37268792 42.82327551 110.53295275 42.81676675 104.69334316 42.79972458 C99.55848456 42.78108971 94.42584938 42.73927547 89.29174805 42.64697266 C84.32955069 42.55901244 79.37063168 42.5348116 74.40773201 42.55335236 C72.51900099 42.54905843 70.63017326 42.52182356 68.74212456 42.4708786 C60.22543121 42.14251436 60.22543121 42.14251436 52 44 C47.9675542 47.89578743 46.12346718 51.79448121 44 57 C43.30336767 58.25985711 42.58884116 59.51046047 41.83837891 60.73901367 C41.30647949 61.70556885 40.77458008 62.67212402 40.2265625 63.66796875 C39.33130859 65.28348633 39.33130859 65.28348633 38.41796875 66.93164062 C37.19904614 69.14508724 35.98030269 71.35863254 34.76171875 73.57226562 C34.17261719 74.63509766 33.58351563 75.69792969 32.9765625 76.79296875 C32.45143066 77.7471167 31.92629883 78.70126465 31.38525391 79.68432617 C30 82 30 82 28 84 C25.5625 84.125 25.5625 84.125 23 83 C21.86667348 80.33858396 20.9072236 77.74049146 20 75 C19.69930603 74.10388 19.39861206 73.20776001 19.08880615 72.28448486 C18.05340775 69.16531394 17.03672705 66.04048326 16.0234375 62.9140625 C15.46736313 61.20686539 15.46736313 61.20686539 14.90005493 59.46517944 C13.72335396 55.85233127 12.54892716 52.23875034 11.375 48.625 C10.19385309 44.98985235 9.01217304 41.35488354 7.82852173 37.72055054 C7.09361532 35.46405614 6.36015454 33.20709032 5.62826538 30.94961548 C5.2976712 29.93450897 4.96707703 28.91940247 4.62646484 27.87353516 C4.3357309 26.9783316 4.04499695 26.08312805 3.74545288 25.16079712 C3.04883062 22.98844037 3.04883062 22.98844037 2 21 C-0.30090065 20.38676575 -0.30090065 20.38676575 -3 21 C-4.82871794 23.43725037 -6.20599302 25.64690239 -7.625 28.3125 C-8.49210814 29.86202358 -9.3592989 31.41150093 -10.2265625 32.9609375 C-10.89993652 34.18828613 -10.89993652 34.18828613 -11.58691406 35.44042969 C-13.99781333 39.807373 -16.50303831 44.11940544 -19 48.4375 C-19.70310303 49.67077026 -19.70310303 49.67077026 -20.42041016 50.92895508 C-20.8591748 51.69361084 -21.29793945 52.4582666 -21.75 53.24609375 C-22.33007812 54.26207642 -22.33007812 54.26207642 -22.921875 55.29858398 C-24 57 -24 57 -26 59 C-28.52477571 58.79744278 -29.64197092 58.41206243 -31.31518555 56.48632812 C-31.6894165 55.84115234 -32.06364746 55.19597656 -32.44921875 54.53125 C-32.86993652 53.809375 -33.2906543 53.0875 -33.72412109 52.34375 C-35.84884795 48.44069262 -37.8591178 44.49127011 -39.8125 40.5 C-40.21919922 39.67757812 -40.62589844 38.85515625 -41.04492188 38.0078125 C-42.03368847 36.00701422 -43.01863481 34.004436 -44 32 C-46.33506024 31.54555028 -46.33506024 31.54555028 -49 32 C-51.04594235 34.40451899 -51.04594235 34.40451899 -52.88696289 37.4284668 C-55.5598404 40.86205434 -57.0600419 42.71215055 -61.25558472 43.99697876 C-65.13261312 44.30154084 -68.92963157 44.29406609 -72.80859375 44.14453125 C-74.22579285 44.1290586 -75.64304919 44.11820748 -77.06031799 44.11174011 C-80.76547471 44.08129517 -84.46588822 43.98317906 -88.16937256 43.87188721 C-91.2022223 43.792477 -94.23465865 43.7621858 -97.26835537 43.73419666 C-100.88621644 43.69986641 -104.50361347 43.64412465 -108.12109375 43.58203125 C-109.15564099 43.56502639 -109.15564099 43.56502639 -110.21108818 43.54767799 C-112.15457027 43.51050077 -114.0977082 43.45647328 -116.04077148 43.40161133 C-117.69882057 43.35850578 -117.69882057 43.35850578 -119.3903656 43.31452942 C-122 43 -122 43 -124 41 C-123.44444444 36.44444444 -123.44444444 36.44444444 -122 35 C-120.18524798 34.94476272 -118.36833652 34.95929059 -116.55322266 35.00097656 C-115.38755768 35.02299133 -114.2218927 35.0450061 -113.02090454 35.06768799 C-111.74814667 35.0917572 -110.47538879 35.11582642 -109.1640625 35.140625 C-105.78225882 35.16668527 -102.40058097 35.18600855 -99.01871681 35.20027542 C-95.4809138 35.21884193 -91.94635991 35.26025391 -88.40966797 35.35302734 C-72.20205728 36.63769141 -72.20205728 36.63769141 -57.77246094 31.19726562 C-54.85229761 28.11109343 -52.96231053 24.7508371 -51 21 C-49.70123642 19.306256 -48.37914579 17.62896054 -47 16 C-44.66064453 16.24511719 -44.66064453 16.24511719 -42 17 C-40.56201172 18.77832031 -40.56201172 18.77832031 -39.4296875 21.078125 C-39.00816406 21.90957031 -38.58664062 22.74101562 -38.15234375 23.59765625 C-37.52005859 24.91056641 -37.52005859 24.91056641 -36.875 26.25 C-36.01925724 27.96405532 -35.16251396 29.67761155 -34.3046875 31.390625 C-33.90862305 32.19306641 -33.51255859 32.99550781 -33.10449219 33.82226562 C-31.85236243 36.29109795 -30.47918112 38.66038019 -29 41 C-26.60958723 40.93380636 -26.60958723 40.93380636 -24 40 C-22.0382251 37.54914869 -22.0382251 37.54914869 -20.4765625 34.3828125 C-20.16729828 33.81102264 -19.85803406 33.23923279 -19.53939819 32.65011597 C-18.55150351 30.81665436 -17.58753951 28.97187872 -16.625 27.125 C-15.35305323 24.72816724 -14.07204129 22.33625508 -12.7890625 19.9453125 C-12.47624329 19.35961487 -12.16342407 18.77391724 -11.84112549 18.17047119 C-4.45036931 4.45036931 -4.45036931 4.45036931 0 0 Z " fill="#F8D1E0" transform="translate(334,317)"/>
<path d="M0 0 C0.94875 0.04125 1.8975 0.0825 2.875 0.125 C3.21273437 1.10082031 3.55046875 2.07664063 3.8984375 3.08203125 C4.34873825 4.36726463 4.79927126 5.65241665 5.25 6.9375 C5.47171875 7.58009766 5.6934375 8.22269531 5.921875 8.88476562 C6.9989885 11.94186717 8.06561861 14.41092791 9.875 17.125 C10.803125 16.774375 11.73125 16.42375 12.6875 16.0625 C15.875 15.125 15.875 15.125 18.875 16.125 C19.82421875 18.41015625 19.82421875 18.41015625 20.5625 21.1875 C20.81386719 22.10660156 21.06523437 23.02570313 21.32421875 23.97265625 C21.50597656 24.68292969 21.68773437 25.39320313 21.875 26.125 C22.968125 26.228125 24.06125 26.33125 25.1875 26.4375 C28.875 27.125 28.875 27.125 30.875 28.375 C31.875 30.125 31.875 30.125 31.625 32.6875 C30.875 35.125 30.875 35.125 29.875 37.125 C35.42579437 40.05178249 40.87567626 42.2918733 46.875 44.125 C47.5 46.4375 47.5 46.4375 47.875 49.125 C45.35926822 52.89859767 43.99441732 52.85209736 39.6875 53.9375 C32.96198955 55.91209799 28.22513582 57.99886577 24.67578125 64.23046875 C23.28064797 67.24374918 22.14941477 70.29335524 21.109375 73.4453125 C20.45980603 75.3732885 19.67641343 77.25503534 18.875 79.125 C15.92730334 80.3330724 14.98703795 80.16234598 11.875 79.125 C10.67442024 76.43464974 9.64691505 73.83651241 8.6875 71.0625 C8.41486328 70.30388672 8.14222656 69.54527344 7.86132812 68.76367188 C7.18884604 66.8878008 6.53057049 65.00684797 5.875 63.125 C3.01005943 62.98962721 3.01005943 62.98962721 0.875 63.6875 C-1.125 64.125 -1.125 64.125 -4.125 63.125 C-4.7578125 61.1640625 -4.7578125 61.1640625 -5.25 58.75 C-6.14083107 55.68807244 -6.51312399 54.47729225 -9.31640625 52.86328125 C-11.57983183 52.13714315 -13.787541 51.551329 -16.125 51.125 C-16.125 47.79166667 -16.125 44.45833333 -16.125 41.125 C-16.86105469 40.85945313 -17.59710938 40.59390625 -18.35546875 40.3203125 C-19.33128906 39.96710938 -20.30710937 39.61390625 -21.3125 39.25 C-22.75689453 38.72792969 -22.75689453 38.72792969 -24.23046875 38.1953125 C-26.88134859 37.21509512 -29.5063098 36.18779566 -32.125 35.125 C-32.4375 32.3125 -32.4375 32.3125 -32.125 29.125 C-28.85159924 26.73582735 -25.60671027 25.57020144 -21.75 24.4375 C-15.83467484 22.31180442 -12.32250127 19.5590049 -9.125 14.125 C-7.87991254 11.00053523 -6.85516522 7.90251367 -5.94921875 4.6640625 C-4.73041591 0.90945658 -3.99300855 0.15972034 0 0 Z " fill="#3B2D61" transform="translate(414.125,140.875)"/>
<path d="M0 0 C8.27239849 2.25610868 13.40226909 10.57645459 18.0625 17.25 C19.19827582 18.84962826 20.3350274 20.44856406 21.47265625 22.046875 C22.05289551 22.86478516 22.63313477 23.68269531 23.23095703 24.52539062 C26.10847039 28.55057354 29.05532974 32.52383318 32 36.5 C34.3354762 39.66509019 36.66835761 42.83208466 39 46 C39.90758057 47.23290771 39.90758057 47.23290771 40.83349609 48.49072266 C42.62336735 50.92755828 44.4063881 53.36925724 46.1875 55.8125 C46.72826172 56.54726562 47.26902344 57.28203125 47.82617188 58.0390625 C53.51221556 65.86735763 57.10188861 73.13903077 56 83 C55.44921875 85.546875 55.44921875 85.546875 54 88 C51.51259804 89.2941614 49.23431704 90.29003349 46.625 91.25 C30.50948655 97.74512262 19.84772287 108.589926 12 124 C10.42363842 127.73567952 9.22381171 131.39167867 8.6640625 135.4140625 C7.81294444 141.22057904 7.81294444 141.22057904 5.484375 143.453125 C0.02626882 146.60373914 -5.86006567 146.86945055 -12 146 C-18.16542321 144.20661528 -22.55942061 140.3706605 -26 135 C-26.875 132.0625 -26.875 132.0625 -27 130 C-26.1646875 129.96132813 -26.1646875 129.96132813 -25.3125 129.921875 C-11.08290383 128.86426988 -3.1068135 118.96472312 5.75 108.75 C6.28109375 108.12609375 6.8121875 107.5021875 7.359375 106.859375 C9.78602447 104.10917227 12.41486231 101.57611823 15.02734375 99.00390625 C17.57160172 96.41934321 19.91756222 93.68968256 22.27734375 90.9375 C23.98736119 89.01421508 25.77597722 87.22661924 27.625 85.4375 C34.20588297 78.94534804 38.25707437 72.79015228 38.4375 63.3125 C38.21303152 51.94730668 32.46653998 44.97911028 25.6640625 36.40234375 C23.06362367 33.11266605 20.6082544 29.73579402 18.1875 26.3125 C15.30723515 22.24132832 12.4130413 18.18220486 9.48046875 14.1484375 C8.88274658 13.32561279 8.28502441 12.50278809 7.66918945 11.6550293 C6.48587052 10.02762361 5.3008486 8.40145465 4.11401367 6.77661133 C3.57881104 6.03950928 3.0436084 5.30240723 2.4921875 4.54296875 C2.01120605 3.88321045 1.53022461 3.22345215 1.03466797 2.54370117 C0 1 0 1 0 0 Z " fill="#E3E4E6" transform="translate(220,175)"/>
<path d="M0 0 C5.57667582 1.31215902 9.73712444 2.73140197 13.16015625 7.67578125 C17.30114783 14.6071184 17.63799066 19.98065884 16.375 27.9375 C14.39826742 32.90811883 9.80141763 34.70667263 5.33740234 37.07885742 C-5.20394636 42.69098515 -10.23762197 50.71286591 -14 62 C-14.22918162 65.40862185 -14.39115015 68.81105401 -14.51757812 72.22460938 C-14.70506335 76.18302383 -15.13837565 79.89732392 -15.99609375 83.76953125 C-17.26049113 89.69815009 -17.44872658 95.58029051 -17.625 101.625 C-17.66367188 102.72457031 -17.70234375 103.82414062 -17.7421875 104.95703125 C-17.83543388 107.63786459 -17.92123267 110.3187089 -18 113 C-24.53938928 112.34214527 -27.679695 110.82375517 -32 106 C-38.14978017 94.8185815 -35.95542693 76.03499814 -32.96875 64.2265625 C-28.77563296 50.26077752 -22.46566907 38.72510218 -12.875 27.8125 C-5.13738604 18.99774078 -0.04623351 12.15941189 0 0 Z " fill="#E3E4E6" transform="translate(149,24)"/>
<path d="M0 0 C8.7568388 3.05047591 13.74748714 10.24673411 17.8125 18.27734375 C22.54926544 29.13762504 22.23000557 41.01152687 18 52 C12.31693842 63.76221534 3.98790693 71.44221616 -8.390625 75.8515625 C-16.81627072 78.06108498 -24.98851227 75.98713083 -33.1875 73.6875 C-33.95513672 73.48705078 -34.72277344 73.28660156 -35.51367188 73.08007812 C-42.58322963 71.12337962 -47.51650063 67.9408671 -52.375 62.375 C-53.06335938 61.59898437 -53.75171875 60.82296875 -54.4609375 60.0234375 C-56 58 -56 58 -56 56 C-55.48695313 56.2165625 -54.97390625 56.433125 -54.4453125 56.65625 C-42.81674661 60.88481942 -29.21370762 60.7337784 -17.90625 55.6796875 C-10.16181416 51.20373668 -3.89868092 45.08263118 0 37 C0.47566406 36.07574219 0.47566406 36.07574219 0.9609375 35.1328125 C5.17062098 25.2072285 4.27044771 11.49373119 0.65625 1.5546875 C0.4396875 1.04164062 0.223125 0.52859375 0 0 Z " fill="#E4E5E6" transform="translate(211,76)"/>
<path d="M0 0 C0.81919922 0.26490234 1.63839844 0.52980469 2.48242188 0.80273438 C3.26552734 1.06248047 4.04863281 1.32222656 4.85546875 1.58984375 C5.56727295 1.82437256 6.27907715 2.05890137 7.01245117 2.30053711 C8.8125 3.0625 8.8125 3.0625 10.8125 5.0625 C10.9375 7.6875 10.9375 7.6875 10.8125 10.0625 C6.47583249 12.39046569 2.29059836 13.85215841 -2.4375 15.1875 C-12.29951703 18.29640307 -18.72504235 23.72318939 -23.625 32.9375 C-25.8376497 37.79909652 -27.37001547 42.67747228 -28.546875 47.8828125 C-29.1875 50.0625 -29.1875 50.0625 -31.1875 52.0625 C-33.625 52.5 -33.625 52.5 -36.1875 52.0625 C-38.82738202 48.41662714 -40.0683875 44.67061679 -41.3125 40.375 C-42.50053338 36.12076706 -42.50053338 36.12076706 -44.1875 32.0625 C-44.88652479 23.49944631 -42.24981467 16.57397035 -36.9140625 9.9765625 C-25.49472203 -2.68288734 -15.70480112 -5.22657787 0 0 Z " fill="#E5E6E7" transform="translate(391.1875,217.9375)"/>
<path d="M0 0 C1.36062418 0.92920676 2.71775659 1.86470143 4.04296875 2.84375 C8.3138034 5.36703754 13.27679298 6.5631668 18 8 C18.625 10.3125 18.625 10.3125 19 13 C16.48426822 16.77359767 15.11941732 16.72709736 10.8125 17.8125 C4.08698955 19.78709799 -0.64986418 21.87386577 -4.19921875 28.10546875 C-5.59435203 31.11874918 -6.72558523 34.16835524 -7.765625 37.3203125 C-8.41519397 39.2482885 -9.19858657 41.13003534 -10 43 C-12.94769666 44.2080724 -13.88796205 44.03734598 -17 43 C-18.15232934 40.35228145 -19.14113993 37.7888775 -20.0625 35.0625 C-21.75324277 29.59032553 -21.75324277 29.59032553 -25 25 C-25.62221316 18.86860785 -23.41110301 13.94834498 -19.8828125 9.08203125 C-14.71003311 3.36192458 -7.91988055 -0.94284292 0 0 Z " fill="#E5E6E7" transform="translate(443,177)"/>
<path d="M0 0 C2.0528691 2.66512831 3.86370764 5.38661242 5.625 8.25 C10.5518894 15.67089793 17.1149605 20.97359685 25 25 C22.85762099 26.64065091 20.69899023 28.1995976 18.44921875 29.69140625 C11.61489109 34.32173574 7.35241315 39.04560073 3 46 C2.01320594 47.34313635 1.01735482 48.67986101 0 50 C-1.12743666 48.25156882 -2.2518542 46.5011906 -3.375 44.75 C-4.00148438 43.77546875 -4.62796875 42.8009375 -5.2734375 41.796875 C-7 39 -7 39 -8.12109375 36.69921875 C-9.32604475 34.36964682 -10.62035939 34.09334839 -13 33 C-14.15680889 32.18197086 -15.30167812 31.34692805 -16.4375 30.5 C-19.17775115 28.49796306 -21.75615092 27.08128303 -25 26 C-22.11472768 23.79283315 -19.14681987 21.76454658 -16.125 19.75 C-8.47512332 14.38048303 -4.23068234 8.25544651 0 0 Z " fill="#FBD3E2" transform="translate(341,184)"/>
<path d="M0 0 C13.83223556 7.67910586 21.37942381 20.86972973 26.0546875 35.421875 C27.94288199 42.56892521 28 48.43413329 28 56 C21.4 56 14.8 56 8 56 C8.33 54.5975 8.66 53.195 9 51.75 C11.93367319 35.29591994 10.8824831 19.2963345 2.05078125 4.8046875 C1 3 1 3 0 0 Z " fill="#E3E4E6" transform="translate(447,288)"/>
<path d="M0 0 C23.51323241 -2.60486327 23.51323241 -2.60486327 31.06640625 3.3046875 C34.79131514 6.82776457 38.20984445 10.68762034 41 15 C41 15.33 41 15.66 41 16 C36.24949181 16.09913574 31.49959024 16.17159264 26.74829102 16.21972656 C25.13327542 16.23979892 23.51833211 16.2670633 21.90356445 16.30175781 C19.57745499 16.35047215 17.25230907 16.37301154 14.92578125 16.390625 C14.20787918 16.41127014 13.48997711 16.43191528 12.75032043 16.45318604 C9.10186699 16.45480626 7.16673962 16.10960409 4.08666992 14.08496094 C1.46062842 11.46107017 0.06218543 9.82440747 -0.06713867 6.03027344 C-0.04475911 4.02018229 -0.02237956 2.01009115 0 0 Z " fill="#E5E6E7" transform="translate(218,368)"/>
<path d="M0 0 C5.27920655 3.89788033 10.07497673 8.76571971 12.59765625 14.91796875 C12.22265625 17.16796875 12.22265625 17.16796875 11.59765625 18.91796875 C11.04851562 18.16902344 10.499375 17.42007813 9.93359375 16.6484375 C7.53784666 13.84805754 5.33787943 12.17202942 2.22265625 10.23046875 C1.30742187 9.64910156 0.3921875 9.06773438 -0.55078125 8.46875 C-9.22030855 3.75395227 -19.89250912 3.45096376 -29.453125 5.60546875 C-37.54518237 8.62583231 -44.10510491 13.39780077 -48.40234375 20.91796875 C-49.40400694 18.30884607 -49.52454438 17.22321467 -48.46875 14.5859375 C-43.69760755 6.71665061 -37.96196568 0.05458799 -29.20703125 -3.4140625 C-19.11480036 -5.81764395 -9.04610154 -5.23852648 0 0 Z " fill="#F6F8FA" transform="translate(192.40234375,67.08203125)"/>
<path d="M0 0 C0.99 1.0209375 0.99 1.0209375 2 2.0625 C4.94297989 5.0139125 8.07523395 7.72835661 11.23046875 10.44921875 C12.52866688 11.58693322 13.7794033 12.7794033 15 14 C14.23816406 14.52787109 14.23816406 14.52787109 13.4609375 15.06640625 C8.57794293 18.56862895 4.69696046 22.26677032 1 27 C-3.66666667 22.33333333 -8.33333333 17.66666667 -13 13 C-12.48050781 12.64808594 -11.96101563 12.29617187 -11.42578125 11.93359375 C-6.4906516 8.43977738 -3.25901802 5.09221566 0 0 Z " fill="#F8D1E0" transform="translate(413,159)"/>
<path d="M0 0 C1.32 0.99 2.64 1.98 4 3 C3.40501641 10.12936482 0.92107983 16.59848323 -1.4375 23.3125 C-1.84548828 24.50423828 -2.25347656 25.69597656 -2.67382812 26.92382812 C-5.74416785 35.74416785 -5.74416785 35.74416785 -8 38 C-11.125 38.125 -11.125 38.125 -14 38 C-15.4135754 33.43995673 -14.39722825 30.13620492 -12.83203125 25.80078125 C-12.5959465 25.12452194 -12.35986176 24.44826263 -12.11662292 23.75151062 C-11.61570621 22.32817775 -11.10851619 20.90703898 -10.59545898 19.48803711 C-9.81362824 17.31563494 -9.0611051 15.13454698 -8.31054688 12.95117188 C-7.81944351 11.56709143 -7.32666141 10.18360525 -6.83203125 8.80078125 C-6.60892776 8.14870193 -6.38582428 7.49662262 -6.15596008 6.82478333 C-5.09665511 3.95593296 -4.42487139 2.27811756 -1.82299805 0.57495117 C-1.22140869 0.38521729 -0.61981934 0.1954834 0 0 Z " fill="#3A2D61" transform="translate(57,329)"/>
<path d="M0 0 C2.16796875 1.7421875 2.16796875 1.7421875 4.1875 3.875 C4.86167969 4.57367188 5.53585937 5.27234375 6.23046875 5.9921875 C8 8 8 8 10 11 C9.67 11.99 9.34 12.98 9 14 C6.37250463 13.21594102 3.74820687 12.42317235 1.125 11.625 C0.37863281 11.40328125 -0.36773437 11.1815625 -1.13671875 10.953125 C-6.7734375 9.2265625 -6.7734375 9.2265625 -9 7 C-9.125 3.875 -9.125 3.875 -9 1 C-5.61559325 -1.13092277 -3.79981288 -1.16262931 0 0 Z " fill="#E4E4E6" transform="translate(322,221)"/>
<path d="M0 0 C2.8125 -0.3125 2.8125 -0.3125 6 0 C8.85062094 3.76281964 9.96407888 7.79849793 11.1875 12.3125 C11.53167969 13.56675781 11.87585938 14.82101563 12.23046875 16.11328125 C12.48441406 17.06589844 12.73835938 18.01851562 13 19 C6.83075784 16.81438716 1.83885778 12.97046257 -1.625 7.375 C-2.10157388 4.35669879 -1.37974225 2.68283216 0 0 Z " fill="#E3E3E5" transform="translate(354,181)"/>
<path d="M0 0 C1.984375 0.87890625 1.984375 0.87890625 3.03125 3.1640625 C3.26328125 4.08058594 3.4953125 4.99710938 3.734375 5.94140625 C3.97671875 6.86050781 4.2190625 7.77960938 4.46875 8.7265625 C4.63890625 9.43683594 4.8090625 10.14710938 4.984375 10.87890625 C0.47634899 9.62085248 -2.5069062 7.9748346 -6.015625 4.87890625 C-3.71154709 -0.22298054 -3.71154709 -0.22298054 0 0 Z " fill="#E0E1E4" transform="translate(431.015625,156.12109375)"/>
<path d="M0 0 C3.27723056 1.05339554 4.60460094 2.63763259 6.3125 5.5 C7.1478125 7.2325 7.1478125 7.2325 8 9 C7.67 9.66 7.34 10.32 7 11 C4.03 10.01 1.06 9.02 -2 8 C-2.125 5.125 -2.125 5.125 -2 2 C-1.34 1.34 -0.68 0.68 0 0 Z " fill="#E2E2E5" transform="translate(400,184)"/>
</svg>
