<?xml version="1.0" encoding="UTF-8"?>
<svg version="1.1" xmlns="http://www.w3.org/2000/svg" width="512" height="512">
<path d="M0 0 C0.928125 0.8353125 0.928125 0.8353125 1.875 1.6875 C4.61362007 0.48250717 6.56550246 -0.86208359 8.9375 -2.75 C16.39575178 -8.08637123 24.79578667 -8.92893424 33.7265625 -7.953125 C41.86521804 -6.29712065 49.61421844 -1.84310514 54.5 4.9453125 C60.80251496 14.85359323 61.16073225 23.51362651 61.0703125 35.03125 C61.06657576 36.40986932 61.06373191 37.78849132 61.06173706 39.16711426 C61.05415258 42.77070634 61.03454962 46.37413355 61.0123291 49.97766113 C60.99175803 53.66477184 60.98260131 57.35191034 60.97265625 61.0390625 C60.95236297 68.25535325 60.91320398 75.47119311 60.875 82.6875 C74.075 82.6875 87.275 82.6875 100.875 82.6875 C100.71786879 74.25165532 100.71786879 74.25165532 100.51464844 65.81689453 C100.4061121 54.17724717 103.22848796 46.317605 111.32421875 37.890625 C118.37764696 31.79853693 126.64850773 29.44715722 135.875 29.6875 C141.02333949 30.18499693 145.36512272 31.18979108 149.8125 33.875 C151.3284375 34.7721875 151.3284375 34.7721875 152.875 35.6875 C156.28749744 34.55000085 156.72669728 33.78637768 158.8125 31 C164.61087965 24.22710276 172.24788659 20.66565225 181.0625 19.6875 C190.75528781 19.37238986 198.1015827 21.80629612 205.875 27.6875 C208.41490424 30.20926207 210.69854854 32.8480236 212.875 35.6875 C215.65295122 34.59315558 218.32617224 33.46191388 221 32.125 C228.81266294 28.80334721 237.92546936 28.92136238 245.875 31.6875 C250.71131201 34.09876667 255.1772999 36.70444683 258.875 40.6875 C261.66665038 39.58775894 264.3654604 38.44707823 267.0625 37.125 C274.41638463 33.99840263 282.40387709 33.97195623 289.875 36.6875 C297.07610194 40.08324899 302.04621461 44.94797893 305.53125 52.07421875 C307.6360903 57.95161707 307.19343178 64.02945767 307.0625 70.1875 C307.000625 74.3125 306.93875 78.4375 306.875 82.6875 C318.095 82.6875 329.315 82.6875 340.875 82.6875 C340.84019531 78.32789062 340.80539062 73.96828125 340.76953125 69.4765625 C340.75020621 65.97632605 340.73394921 62.4761049 340.71974945 58.97584534 C340.70397981 55.29417012 340.6829454 51.61270584 340.64868164 47.93115234 C340.61582334 44.37793291 340.59809196 40.82491662 340.59036827 37.27155685 C340.58221684 35.27208499 340.55884076 33.2726936 340.53511047 31.27334595 C340.53303464 19.90878366 342.37426356 10.50593338 349.875 1.6875 C357.04390427 -4.98599219 364.64048058 -7.89832151 374.390625 -8.4375 C383.8038122 -8.09980719 391.33041857 -5.009281 397.875 1.6875 C400.93375305 0.23161754 403.71666004 -1.47943078 406.5625 -3.3125 C414.19120859 -7.91216253 422.15882534 -9.65449532 430.953125 -7.58984375 C442.61125303 -4.30267751 448.81533562 0.05510736 454.875 10.6875 C457.45757148 16.49288724 457.12958363 22.20205571 457.0703125 28.4296875 C457.06606766 30.11495041 457.06606766 30.11495041 457.06173706 31.83425903 C457.05057303 35.41044927 457.02547501 38.9863859 457 42.5625 C456.98996533 44.99218387 456.98084033 47.42187169 456.97265625 49.8515625 C456.95064604 55.79696102 456.91720589 61.74221239 456.875 67.6875 C454.565 67.6875 452.255 67.6875 449.875 67.6875 C449.875 72.3075 449.875 76.9275 449.875 81.6875 C452.185 81.6875 454.495 81.6875 456.875 81.6875 C456.96855868 100.04652276 457.03903561 118.4054834 457.08224869 136.76469326 C457.10284912 145.28974325 457.13092135 153.81464487 457.17675781 162.33959961 C457.21670295 169.77240875 457.24245112 177.20511041 457.25135398 184.63802391 C457.25655579 188.57152084 457.26872885 192.50471033 457.29792023 196.43810844 C457.32521102 200.14569464 457.33341772 203.85284879 457.32743073 207.56052589 C457.32904388 209.55914465 457.35049483 211.55771711 457.37268066 213.55621338 C457.33944087 220.85371867 456.55515865 226.33485935 452.875 232.6875 C452.42898438 233.48542969 451.98296875 234.28335938 451.5234375 235.10546875 C446.85334149 241.59489664 440.51623635 245.84825243 432.8125 248.0625 C421.32319688 249.88619891 412.31735121 247.88866883 402.78515625 241.08984375 C402.15480469 240.62707031 401.52445312 240.16429687 400.875 239.6875 C399.885 239.0275 398.895 238.3675 397.875 237.6875 C397.875 238.3475 397.875 239.0075 397.875 239.6875 C389.29160532 246.3774988 380.80573763 249.8314144 369.875 248.6875 C359.89445668 246.81418035 351.87935113 242.10673128 346.08984375 233.703125 C342.17955479 227.21531437 340.74584885 221.0675041 340.76147461 213.52026367 C340.76155014 212.29937546 340.76162567 211.07848724 340.76170349 209.82060242 C340.76686478 208.51210831 340.77202606 207.2036142 340.77734375 205.85546875 C340.77921039 204.49498039 340.78063313 203.13449135 340.78163147 201.77400208 C340.78543725 198.20494713 340.79525086 194.63593331 340.80633545 191.06689453 C340.81659137 187.42025305 340.82113803 183.77360489 340.82617188 180.12695312 C340.83687497 172.98045038 340.85445596 165.83398222 340.875 158.6875 C332.625 158.6875 324.375 158.6875 315.875 158.6875 C315.9678125 164.441875 315.9678125 164.441875 316.0625 170.3125 C316.11057472 179.87690471 315.77989675 188.51039761 312.875 197.6875 C312.56949219 198.68523437 312.26398438 199.68296875 311.94921875 200.7109375 C307.38226047 213.89699159 299.87407189 226.19094177 292.25 237.8125 C288.91123037 243.07957943 287.65001118 247.45812192 287.875 253.6875 C289.1125 253.996875 289.1125 253.996875 290.375 254.3125 C298.60809071 257.54692849 302.82756828 262.16038743 306.63104248 270.10565186 C308.94999061 276.78282526 308.69254982 283.49904104 308.6015625 290.4765625 C308.6005221 292.07213336 308.60156983 293.66770679 308.60458374 295.26327515 C308.60440556 298.58671988 308.58380854 301.90918149 308.54736328 305.23242188 C308.50191605 309.4666572 308.50092688 313.69946553 308.51439857 317.93387794 C308.52111779 321.22161278 308.50774563 324.50902918 308.48814011 327.79670334 C308.48050939 329.35701196 308.47810883 330.91735621 308.4813118 332.47768021 C308.48470457 342.35589075 307.97009088 351.02192066 301.98046875 359.30859375 C301.03107422 360.20771484 301.03107422 360.20771484 300.0625 361.125 C299.43730469 361.74246094 298.81210937 362.35992187 298.16796875 362.99609375 C295.875 364.6875 295.875 364.6875 288.875 367.6875 C288.545 395.4075 288.215 423.1275 287.875 451.6875 C233.095 451.6875 178.315 451.6875 121.875 451.6875 C121.545 423.9675 121.215 396.2475 120.875 367.6875 C116.915 365.7075 116.915 365.7075 112.875 363.6875 C106.8665657 359.34327232 103.73584078 353.77784188 101.875 346.6875 C101.28887173 341.17604093 101.26206948 335.70198495 101.2734375 330.1640625 C101.26564377 328.57041994 101.25697042 326.97678147 101.24746704 325.38314819 C101.23261934 322.05640141 101.23306833 318.73007941 101.24365234 315.40332031 C101.25523188 311.17120225 101.22137255 306.94083771 101.174963 302.70900917 C101.14528587 299.42121473 101.14377184 296.13383289 101.14998245 292.84592819 C101.14896609 291.28722029 101.13868254 289.72848616 101.11835861 288.16991043 C101.00492427 278.256334 101.98183663 270.07896755 107.875 261.6875 C112.00784601 257.59504625 116.18096496 255.11100876 121.875 253.6875 C122.02161889 246.84145698 122.02161889 246.84145698 119.53125 240.64453125 C117.730459 238.85601837 115.8629948 237.26472005 113.875 235.6875 C112.66293259 234.62926171 111.45471802 233.56659748 110.25 232.5 C109.58871094 231.93023437 108.92742187 231.36046875 108.24609375 230.7734375 C104.669233 227.62674287 101.18924716 224.37649754 97.70654297 221.1262207 C97.18334473 220.63984131 96.66014648 220.15346191 96.12109375 219.65234375 C95.3818718 218.94836456 95.3818718 218.94836456 94.62771606 218.23016357 C92.92971008 216.65972491 92.92971008 216.65972491 91.05078125 215.50596619 C87.98370136 213.40736674 86.15189318 211.83626727 85.26197815 208.14421082 C85.06470828 204.98267327 85.08802657 201.8926174 85.19140625 198.7265625 C85.20131088 197.58085785 85.21121552 196.4351532 85.22142029 195.25473022 C85.26051325 191.60600187 85.34833548 187.96031444 85.4375 184.3125 C85.47262 181.83467895 85.50455778 179.35681061 85.53320312 176.87890625 C85.60430385 170.81299887 85.74128173 164.75364007 85.875 158.6875 C77.625 158.6875 69.375 158.6875 60.875 158.6875 C60.89071045 160.48300293 60.9064209 162.27850586 60.92260742 164.12841797 C60.97120273 170.09545713 61.00555347 176.06243969 61.03043652 182.0296154 C61.04601793 185.64355511 61.06711627 189.25727849 61.10131836 192.87109375 C61.13418345 196.36595884 61.15190942 199.86061732 61.15963173 203.35562515 C61.16778089 205.32185945 61.19115582 207.28801194 61.21488953 209.25411987 C61.21698737 220.55386656 59.32985138 229.92301257 51.875 238.6875 C44.29619354 245.7425678 35.66645982 249.06982106 25.33203125 248.8984375 C17.26084623 248.20552177 9.99828179 244.99730232 3.875 239.6875 C3.875 239.0275 3.875 238.3675 3.875 237.6875 C3.23433594 238.15800781 2.59367187 238.62851562 1.93359375 239.11328125 C-7.36044987 245.80333053 -15.46881396 249.68819006 -27.125 248.6875 C-36.76345283 246.90204092 -44.27161747 242.64398116 -50.0625 234.6875 C-53.77393461 229.21247589 -55.3772242 224.19417314 -55.36550903 217.57510376 C-55.36825836 216.3720459 -55.37100769 215.16898804 -55.37384033 213.92947388 C-55.36664978 212.62324066 -55.35945923 211.31700745 -55.35205078 209.97119141 C-55.35148618 208.57130949 -55.35180419 207.17142698 -55.35293579 205.77154541 C-55.35350839 201.9827131 -55.34176919 198.19400805 -55.32778788 194.40520525 C-55.31526498 190.44139791 -55.31410879 186.47758749 -55.31173706 182.51376343 C-55.30552687 175.01283331 -55.2891223 167.51196166 -55.26903808 160.01105726 C-55.24666473 151.46937181 -55.23568204 142.92768354 -55.22564721 134.38597608 C-55.20475566 116.8197836 -55.16958865 99.25364798 -55.125 81.6875 C-52.815 81.6875 -50.505 81.6875 -48.125 81.6875 C-48.125 77.0675 -48.125 72.4475 -48.125 67.6875 C-50.435 67.6875 -52.745 67.6875 -55.125 67.6875 C-55.22686657 60.58923677 -55.29666082 53.49116381 -55.34472656 46.39233398 C-55.36477552 43.98015295 -55.39202192 41.56802011 -55.42675781 39.15600586 C-55.47557051 35.67810127 -55.49803683 32.20084228 -55.515625 28.72265625 C-55.53627014 27.65354507 -55.55691528 26.5844339 -55.57818604 25.48292542 C-55.58107697 15.71923219 -52.77650119 8.66916758 -46.10546875 1.54296875 C-32.3407989 -11.3529251 -14.95742026 -11.06849099 0 0 Z " fill="#010101" transform="translate(55.125,34.3125)"/>
<path d="M0 0 C11.88 0 23.76 0 36 0 C36 14.85 36 29.7 36 45 C11.58 45 -12.84 45 -38 45 C-38 49.95 -38 54.9 -38 60 C-27.11 60 -16.22 60 -5 60 C-4.60665419 88.91091699 -12.10760332 115.93956541 -31.16748047 138.57397461 C-33.97526451 143.27053147 -33.97526451 143.27053147 -34 155 C-57.1 155 -80.2 155 -104 155 C-104 159.95 -104 164.9 -104 170 C-100.36653564 169.9685791 -100.36653564 169.9685791 -96.65966797 169.93652344 C-88.64905253 169.87019222 -80.63842484 169.82604015 -72.62760735 169.79275131 C-67.77144701 169.77189225 -62.91556848 169.7436053 -58.05957031 169.69824219 C-53.37168744 169.65472449 -48.68407532 169.63085024 -43.99600601 169.62049103 C-42.20904402 169.61311029 -40.42209656 169.59869729 -38.63525009 169.57707977 C-36.12874282 169.54796655 -33.62334885 169.54404723 -31.11669922 169.54589844 C-30.38086105 169.53151733 -29.64502289 169.51713623 -28.8868866 169.50231934 C-22.88638095 169.55015202 -19.60692634 171.75264971 -15.1875 175.5625 C-12.52739592 178.78262599 -12.85708205 182.33014359 -12.82299805 186.30395508 C-12.80374519 188.25662041 -12.80374519 188.25662041 -12.78410339 190.24873352 C-12.7759356 191.67232889 -12.76849195 193.09592857 -12.76171875 194.51953125 C-12.75764322 195.23744024 -12.7535677 195.95534924 -12.74936867 196.69501305 C-12.72852527 200.49499599 -12.71421617 204.294943 -12.70483398 208.0949707 C-12.69377366 212.01245496 -12.65937397 215.92937056 -12.61966228 219.84665394 C-12.59347241 222.86562632 -12.58514009 225.88446367 -12.58155251 228.90353966 C-12.57669253 230.34719368 -12.56509522 231.79084191 -12.54651451 233.23438454 C-12.52207763 235.25873677 -12.52551233 237.28336665 -12.5300293 239.30786133 C-12.52416306 240.45797195 -12.51829681 241.60808258 -12.51225281 242.79304504 C-13.30471858 248.00353539 -15.63940129 250.93235772 -19.73388195 254.14523792 C-23.39654988 256.22519262 -25.4283858 256.50239709 -29.60351562 256.50793457 C-31.57179321 256.52485352 -31.57179321 256.52485352 -33.57983398 256.54211426 C-35.02197488 256.5343381 -36.46411358 256.52614549 -37.90625 256.51757812 C-39.43433295 256.5230019 -40.96241066 256.530126 -42.49047852 256.53881836 C-46.63102079 256.55702444 -50.77116355 256.54999557 -54.91171265 256.53730202 C-59.24909526 256.52716021 -63.58644414 256.53657097 -67.92382812 256.54284668 C-75.20709359 256.55011965 -82.4901967 256.54054461 -89.7734375 256.52148438 C-98.18847922 256.49971624 -106.60313326 256.50676787 -115.01816559 256.52879 C-122.24892744 256.54695401 -129.47957273 256.54949744 -136.71035004 256.53903532 C-141.02644707 256.53280587 -145.342362 256.53194959 -149.65844727 256.54518127 C-153.71664538 256.5567538 -157.77434467 256.54868885 -161.83248901 256.52560425 C-163.31996839 256.52032459 -164.80748989 256.52181827 -166.29495239 256.53065491 C-168.32878092 256.5416215 -170.36270141 256.52541659 -172.39648438 256.50793457 C-173.53355835 256.50642647 -174.67063232 256.50491837 -175.84216309 256.50336456 C-180.99657608 255.68174239 -184.07560736 253.1176934 -187.34364319 249.16627502 C-189.2211395 245.57727196 -189.50112382 243.36848151 -189.50170898 239.33959961 C-189.51108994 238.03482162 -189.52047089 236.73004364 -189.53013611 235.38572693 C-189.51965825 233.97459248 -189.5082893 232.5634644 -189.49609375 231.15234375 C-189.49624887 229.69316028 -189.49774008 228.2339764 -189.50050354 226.77479553 C-189.50188452 223.72427034 -189.48937933 220.67421705 -189.46655273 217.6237793 C-189.43814314 213.72087097 -189.44091601 209.8187446 -189.45364285 205.91577816 C-189.46060891 202.90537375 -189.45280069 199.89514899 -189.44038582 196.88476753 C-189.43588207 195.44591524 -189.43552509 194.0070436 -189.43945122 192.56818962 C-189.44237285 190.55576256 -189.42366266 188.54333949 -189.40405273 186.53100586 C-189.39864975 185.38772324 -189.39324677 184.24444061 -189.38768005 183.06651306 C-188.79231473 178.35722888 -186.9556427 175.83910091 -183.4375 172.75 C-179.72181011 170.08232521 -177.81618746 169.87695358 -173.26513672 169.88647461 C-171.46349564 169.88658791 -171.46349564 169.88658791 -169.62545776 169.88670349 C-168.32335358 169.89186478 -167.02124939 169.89702606 -165.6796875 169.90234375 C-164.33733167 169.90420862 -162.99497516 169.9056322 -161.65261841 169.90663147 C-158.11804325 169.91045122 -154.58350913 169.92027688 -151.0489502 169.93133545 C-147.44279536 169.94156122 -143.8366339 169.94613159 -140.23046875 169.95117188 C-133.15362744 169.96189963 -126.07682071 169.97949205 -119 170 C-119 165.05 -119 160.1 -119 155 C-135.17 155 -151.34 155 -168 155 C-168.33 149.39 -168.66 143.78 -169 138 C-173.10113602 133.29729112 -173.10113602 133.29729112 -177.61328125 129.5390625 C-180.96268441 127.06886571 -183.96910249 124.34553377 -187 121.5 C-189.98910013 118.69725197 -192.90085375 116.07546424 -196.16355896 113.59208679 C-204.34638762 107.09249847 -204.34638762 107.09249847 -206.08352661 101.53115845 C-206.46483748 97.57927018 -206.48774987 93.72809678 -206.34765625 89.76953125 C-206.33793509 88.32470504 -206.33285193 86.87984103 -206.33213806 85.4349823 C-206.31833346 82.42526501 -206.26517529 79.41990407 -206.17993164 76.41137695 C-206.07209348 72.57439933 -206.03905112 68.74146263 -206.03240299 64.90311146 C-206.02323292 61.92658091 -205.98706033 58.95088679 -205.94164848 55.97470665 C-205.92086631 54.5607244 -205.90534996 53.14665368 -205.89543343 51.73255348 C-205.81204781 43.66788107 -205.56721381 37.194422 -200 31 C-195.38338099 26.71313949 -191.58354507 25.57586586 -185.4140625 25.65625 C-180.01853709 26.42454488 -176.32922538 29.41344006 -172.91040039 33.49414062 C-170.39788436 38.10496876 -170.48942836 41.6157904 -170.609375 46.7734375 C-170.61503479 47.6971817 -170.62069458 48.6209259 -170.62652588 49.57266235 C-170.64881948 52.50731418 -170.69900252 55.44072061 -170.75 58.375 C-170.77007408 60.37107605 -170.78832326 62.36717134 -170.8046875 64.36328125 C-170.84866128 69.24266338 -170.91764001 74.12112093 -171 79 C-165.72 79 -160.44 79 -155 79 C-155 72.73 -155 66.46 -155 60 C-121.34 60 -87.68 60 -53 60 C-53 55.05 -53 50.1 -53 45 C-86.99 45 -120.98 45 -156 45 C-156.99 38.565 -156.99 38.565 -158 32 C-158.66 30.68 -159.32 29.36 -160 28 C-160 27.01 -160 26.02 -160 25 C-153.375 21 -153.375 21 -150 21 C-148.7109375 22.5390625 -148.7109375 22.5390625 -147.375 24.625 C-142.99859739 30.76502755 -136.4832739 35.53269139 -129 37 C-119.59760146 37.89948207 -110.53231156 36.75947742 -102.57421875 31.3515625 C-98.95262232 28.31922033 -96.08492561 25.30015908 -94 21 C-91.04639243 21.63433183 -88.60974276 22.59951825 -85.9375 24 C-78.47981477 27.89345563 -70.34523201 28.21051639 -62.13671875 26.3515625 C-56.0350888 24.13106264 -51.57200082 20.54645891 -47 16 C-44.62796641 16.91820655 -42.30450837 17.84011785 -40.05078125 19.0234375 C-32.55251159 22.81968893 -25.41222469 23.16806102 -17.3125 20.9375 C-12.05592497 18.88752977 -8.8476753 16.16831491 -5 12 C-2.525 6.06 -2.525 6.06 0 0 Z " fill="#FDE2C1" transform="translate(361,132)"/>
<path d="M0 0 C4.95 0 9.9 0 15 0 C15 2.31 15 4.62 15 7 C16.50217575 6.98667633 16.50217575 6.98667633 18.03469849 6.9730835 C27.48053027 6.89193483 36.92629116 6.83200446 46.37239265 6.79275131 C51.22855299 6.77189225 56.08443152 6.7436053 60.94042969 6.69824219 C65.62831256 6.65472449 70.31592468 6.63085024 75.00399399 6.62049103 C76.79095598 6.61311029 78.57790344 6.59869729 80.36474991 6.57707977 C82.87125718 6.54796655 85.37665115 6.54404723 87.88330078 6.54589844 C88.61913895 6.53151733 89.35497711 6.51713623 90.1131134 6.50231934 C96.11361905 6.55015202 99.39307366 8.75264971 103.8125 12.5625 C106.47260408 15.78262599 106.14291795 19.33014359 106.17700195 23.30395508 C106.19625481 25.25662041 106.19625481 25.25662041 106.21589661 27.24873352 C106.2240644 28.67232889 106.23150805 30.09592857 106.23828125 31.51953125 C106.24235678 32.23744024 106.2464323 32.95534924 106.25063133 33.69501305 C106.27147473 37.49499599 106.28578383 41.294943 106.29516602 45.0949707 C106.30622634 49.01245496 106.34062603 52.92937056 106.38033772 56.84665394 C106.40652759 59.86562632 106.41485991 62.88446367 106.41844749 65.90353966 C106.42330747 67.34719368 106.43490478 68.79084191 106.45348549 70.23438454 C106.47792237 72.25873677 106.47448767 74.28336665 106.4699707 76.30786133 C106.47583694 77.45797195 106.48170319 78.60808258 106.48774719 79.79304504 C105.69528142 85.00353539 103.36059871 87.93235772 99.26611805 91.14523792 C95.60345012 93.22519262 93.5716142 93.50239709 89.39648438 93.50793457 C87.42820679 93.52485352 87.42820679 93.52485352 85.42016602 93.54211426 C83.97802512 93.5343381 82.53588642 93.52614549 81.09375 93.51757812 C79.56566705 93.5230019 78.03758934 93.530126 76.50952148 93.53881836 C72.36897921 93.55702444 68.22883645 93.54999557 64.08828735 93.53730202 C59.75090474 93.52716021 55.41355586 93.53657097 51.07617188 93.54284668 C43.79290641 93.55011965 36.5098033 93.54054461 29.2265625 93.52148438 C20.81152078 93.49971624 12.39686674 93.50676787 3.98183441 93.52879 C-3.24892744 93.54695401 -10.47957273 93.54949744 -17.71035004 93.53903532 C-22.02644707 93.53280587 -26.342362 93.53194959 -30.65844727 93.54518127 C-34.71664538 93.5567538 -38.77434467 93.54868885 -42.83248901 93.52560425 C-44.31996839 93.52032459 -45.80748989 93.52181827 -47.29495239 93.53065491 C-49.32878092 93.5416215 -51.36270141 93.52541659 -53.39648438 93.50793457 C-54.53355835 93.50642647 -55.67063232 93.50491837 -56.84216309 93.50336456 C-61.99657608 92.68174239 -65.07560736 90.1176934 -68.34364319 86.16627502 C-70.2211395 82.57727196 -70.50112382 80.36848151 -70.50170898 76.33959961 C-70.51108994 75.03482162 -70.52047089 73.73004364 -70.53013611 72.38572693 C-70.51965825 70.97459248 -70.5082893 69.5634644 -70.49609375 68.15234375 C-70.49624887 66.69316028 -70.49774008 65.2339764 -70.50050354 63.77479553 C-70.50188452 60.72427034 -70.48937933 57.67421705 -70.46655273 54.6237793 C-70.43814314 50.72087097 -70.44091601 46.8187446 -70.45364285 42.91577816 C-70.46060891 39.90537375 -70.45280069 36.89514899 -70.44038582 33.88476753 C-70.43588207 32.44591524 -70.43552509 31.0070436 -70.43945122 29.56818962 C-70.44237285 27.55576256 -70.42366266 25.54333949 -70.40405273 23.53100586 C-70.39864975 22.38772324 -70.39324677 21.24444061 -70.38768005 20.06651306 C-69.79231473 15.35722888 -67.9556427 12.83910091 -64.4375 9.75 C-60.72181011 7.08232521 -58.81618746 6.87695358 -54.26513672 6.88647461 C-52.46349564 6.88658791 -52.46349564 6.88658791 -50.62545776 6.88670349 C-48.67230148 6.89444542 -48.67230148 6.89444542 -46.6796875 6.90234375 C-45.33733167 6.90420862 -43.99497516 6.9056322 -42.65261841 6.90663147 C-39.11804325 6.91045122 -35.58350913 6.92027688 -32.0489502 6.93133545 C-28.44279536 6.94156122 -24.8366339 6.94613159 -21.23046875 6.95117188 C-14.15362904 6.96189962 -7.0768172 6.97896955 0 7 C0 4.69 0 2.38 0 0 Z " fill="#F68EA3" transform="translate(242,295)"/>
<path d="M0 0 C44.88 0 89.76 0 136 0 C136 5.28 136 10.56 136 16 C125.11 16 114.22 16 103 16 C103 20.62 103 25.24 103 30 C113.89 30 124.78 30 136 30 C136 35.28 136 40.56 136 46 C130.06 46 124.12 46 118 46 C118 50.95 118 55.9 118 61 C123.61 61 129.22 61 135 61 C135 68.26 135 75.52 135 83 C137.64 83 140.28 83 143 83 C143 83.33 143 83.66 143 84 C93.5 84 44 84 -7 84 C-7 83.67 -7 83.34 -7 83 C-4.69 83 -2.38 83 0 83 C0 55.61 0 28.22 0 0 Z " fill="#FDE2C1" transform="translate(192,402)"/>
<path d="M0 0 C5.23219836 2.51920662 9.38537029 6.77074058 12 12 C12.08991092 13.54227856 12.11756961 15.08840895 12.11352539 16.63330078 C12.11344986 17.59414581 12.11337433 18.55499084 12.11329651 19.54495239 C12.10813522 20.58457123 12.10297394 21.62419006 12.09765625 22.6953125 C12.0962413 23.75789276 12.09482635 24.82047302 12.09336853 25.91525269 C12.08775834 29.31853009 12.07520409 32.72174238 12.0625 36.125 C12.05748631 38.42838447 12.05292318 40.73176997 12.04882812 43.03515625 C12.0377856 48.69012649 12.02103752 54.34505859 12 60 C14.64 60 17.28 60 20 60 C20 64.95 20 69.9 20 75 C17.36 75 14.72 75 12 75 C12.00276538 75.70053057 12.00553076 76.40106113 12.00837994 77.1228199 C12.07465451 94.17414826 12.12428774 111.22544388 12.15543652 128.27687263 C12.1709005 136.52284498 12.19198102 144.76873131 12.22631836 153.01464844 C12.25623511 160.20241761 12.27557842 167.39012447 12.28226548 174.57795417 C12.2861739 178.38330732 12.29534935 182.18848224 12.31719017 185.99377823 C12.33759137 189.57737042 12.34382653 193.1607114 12.33932304 196.74435616 C12.34053856 198.68269687 12.3566617 200.62101038 12.3732605 202.5592804 C12.34874577 209.46067071 12.16820129 214.56538178 7.28125 219.86328125 C6.6934375 220.34152344 6.105625 220.81976563 5.5 221.3125 C4.9121875 221.80363281 4.324375 222.29476562 3.71875 222.80078125 C-0.65052892 225.84934631 -5.90624088 225.65652895 -11 225 C-16.39637399 222.94992947 -19.32179584 220.07487617 -22.13857937 215.01418698 C-23.61303137 211.56660062 -23.55155354 208.27132593 -23.50793457 204.56785583 C-23.51417453 203.74531423 -23.5204145 202.92277263 -23.52684355 202.07530552 C-23.54273404 199.33302944 -23.53018504 196.59164711 -23.51757812 193.84936523 C-23.52300096 191.87779219 -23.53012452 189.9062232 -23.53881836 187.93466187 C-23.55703418 182.58970135 -23.54999159 177.2450501 -23.53730202 171.90008426 C-23.52716682 166.30415441 -23.53656902 160.70825084 -23.54284668 155.11231995 C-23.55012095 145.71651459 -23.54054047 136.32083507 -23.52148438 126.92504883 C-23.49970979 116.06347973 -23.50677224 105.20221091 -23.52879 94.34064907 C-23.54694266 85.01222744 -23.54950314 75.68389619 -23.53903532 66.35546261 C-23.5328005 60.785193 -23.53196467 55.21506453 -23.54518127 49.644804 C-23.55673735 44.40882052 -23.54871825 39.17322423 -23.52560425 33.93728256 C-23.52031617 32.01602255 -23.52183262 30.09472993 -23.53065491 28.17348289 C-23.54158992 25.55026917 -23.527872 22.92829529 -23.50793457 20.30516052 C-23.51685746 19.5453318 -23.52578034 18.78550308 -23.53497362 18.00264925 C-23.44753513 12.06953437 -21.49400108 8.51190061 -17.3671875 4.35546875 C-11.46879183 -0.26133833 -7.43842009 -0.74805641 0 0 Z " fill="#56748C" transform="translate(485,42)"/>
<path d="M0 0 C5.23219836 2.51920662 9.38537029 6.77074058 12 12 C12.10651612 14.61430015 12.1522115 17.20247511 12.15390015 19.81741333 C12.16047353 21.04270085 12.16047353 21.04270085 12.1671797 22.29274166 C12.18059516 25.04558655 12.18675276 27.79839942 12.19287109 30.55126953 C12.20077001 32.51885626 12.20903883 34.48644153 12.21765137 36.45402527 C12.2438998 42.93027355 12.25918364 49.40652838 12.2734375 55.8828125 C12.27879637 58.11081827 12.28417387 60.338824 12.28956985 62.56682968 C12.31120434 71.83494824 12.32994085 81.10306504 12.34119225 90.37120247 C12.35742875 103.65923931 12.39059298 116.94698359 12.44759309 130.23491013 C12.48629051 139.57427639 12.50582483 148.91356439 12.51111281 158.25300872 C12.51476704 163.83244186 12.52679591 169.41156316 12.55921555 174.99090958 C12.58929174 180.24242905 12.59560942 185.49344795 12.58383179 190.74503517 C12.583611 192.67031406 12.59191994 194.59561613 12.60948563 196.5208149 C12.63220494 199.15470498 12.62387008 201.7867842 12.60800171 204.42068481 C12.62882484 205.55680527 12.62882484 205.55680527 12.65006864 206.71587765 C12.56499042 212.46872884 10.72366563 216.60036906 7 221 C2.14545798 224.66515758 -2.63844152 225.6601788 -8.67578125 225.3828125 C-14.86752237 224.36299631 -18.45716538 219.75752078 -22 215 C-23.04186458 211.87440627 -23.12325415 209.71678642 -23.12025452 206.43818665 C-23.12162918 205.28132355 -23.12300385 204.12446045 -23.12442017 202.93254089 C-23.12082489 201.66227554 -23.11722961 200.39201019 -23.11352539 199.08325195 C-23.11324334 197.73307294 -23.1134016 196.38289377 -23.1139679 195.03271484 C-23.11425517 191.36564067 -23.10836971 187.69859911 -23.10139394 184.03153253 C-23.09514878 180.19983094 -23.09455568 176.36812862 -23.09336853 172.53642273 C-23.09025865 165.27978372 -23.08204987 158.02315974 -23.07201904 150.76652735 C-23.06084727 142.50543203 -23.05534477 134.244336 -23.05032361 125.983235 C-23.03986698 108.98881463 -23.02227416 91.9944089 -23 75 C-25.64 75 -28.28 75 -31 75 C-31 70.05 -31 65.1 -31 60 C-28.36 60 -25.72 60 -23 60 C-23.00888245 59.41197601 -23.01776489 58.82395203 -23.0269165 58.21810913 C-23.11555783 52.08609763 -23.17580383 45.95426878 -23.21972656 39.82177734 C-23.23981517 37.53459274 -23.26709128 35.24745932 -23.30175781 32.96044922 C-23.35039558 29.66881666 -23.37299679 26.37786443 -23.390625 23.0859375 C-23.41127014 22.06696381 -23.43191528 21.04799011 -23.45318604 19.99813843 C-23.45540953 12.92897038 -22.40594943 9.43039405 -17.3671875 4.35546875 C-11.46879183 -0.26133833 -7.43842009 -0.74805641 0 0 Z " fill="#56748C" transform="translate(38,42)"/>
<path d="M0 0 C5.43268015 2.00245896 8.3157579 4.92444443 11.13734341 9.98894608 C12.5878276 13.37036338 12.55076288 16.76960669 12.50793457 20.38072205 C12.51417453 21.19776897 12.5204145 22.01481588 12.52684355 22.8566218 C12.54273307 25.58041244 12.53018535 28.30330314 12.51757812 31.02709961 C12.52300108 32.98557556 12.53012472 34.94404743 12.53881836 36.9025116 C12.55703506 42.21248422 12.54999059 47.52214554 12.53730202 52.83212352 C12.52716442 58.3937518 12.53656995 63.95535369 12.54284668 69.51698303 C12.55012146 78.85731788 12.54054041 88.19752617 12.52148438 97.5378418 C12.4997224 108.32893522 12.50676288 119.11972624 12.52879 129.91081232 C12.54695637 139.18236562 12.54949605 148.45382801 12.53903532 157.72539335 C12.53280641 163.25995657 12.53194815 168.79437778 12.54518127 174.32893181 C12.55675685 179.53373262 12.5486826 184.7381446 12.52560425 189.94290352 C12.52032604 191.85042298 12.52181569 193.75797529 12.53065491 195.66548157 C12.54162942 198.27485729 12.52782436 200.88299679 12.50793457 203.49229431 C12.51685746 204.2424064 12.52578034 204.99251849 12.53497362 205.76536125 C12.45513495 211.18660915 11.08120349 215.49914068 8 220 C2.59280421 224.30368644 -1.74874212 225.35390656 -8.49609375 225.28515625 C-13.78943033 224.68232697 -17.66427068 220.93139527 -21 217 C-23.21615246 212.69593249 -23.28686205 208.62877351 -23.26742554 203.89102173 C-23.27195665 203.07906165 -23.27648776 202.26710156 -23.28115618 201.43053663 C-23.29380728 198.71225939 -23.29217936 195.99418232 -23.29052734 193.27587891 C-23.29651212 191.3259302 -23.30331755 189.37598387 -23.31088257 187.42604065 C-23.32855422 182.1305684 -23.33323842 176.83516077 -23.33451414 171.53966188 C-23.33641347 167.11866491 -23.34377134 162.69768298 -23.35085833 158.27669179 C-23.36714407 147.84623729 -23.37202709 137.41581732 -23.37060547 126.98535156 C-23.36940374 116.22610956 -23.39051141 105.46706806 -23.4220928 94.7078768 C-23.44824367 85.46951689 -23.45897327 76.23122251 -23.45769465 66.99282587 C-23.4571847 61.4755698 -23.46288639 55.95849193 -23.48405075 50.44127274 C-23.50341319 45.25212777 -23.50357114 40.06333137 -23.48901749 34.87417412 C-23.48692587 32.97106225 -23.49165124 31.06792868 -23.5037384 29.16485405 C-23.51918705 26.56380848 -23.50988571 23.96396544 -23.49447632 21.36294556 C-23.50476344 20.61244733 -23.51505057 19.86194911 -23.52564943 19.08870852 C-23.44534715 12.94179673 -21.57135473 8.74359859 -17.3671875 4.2578125 C-11.46114659 -0.22583112 -7.38592151 -0.86717297 0 0 Z " fill="#56748C" transform="translate(88,42)"/>
<path d="M0 0 C3.73288983 3.37737651 6.99967933 6.499038 8.625 11.375 C8.72927382 14.00413957 8.77717819 16.60722151 8.77890015 19.23674011 C8.78547353 20.45105861 8.78547353 20.45105861 8.7921797 21.6899088 C8.80557128 24.41200859 8.81174738 27.13407601 8.81787109 29.85620117 C8.82577179 31.80423123 8.83404073 33.75225982 8.84265137 35.70028687 C8.86887577 42.1061666 8.8841797 48.51205288 8.8984375 54.91796875 C8.90379706 57.12276018 8.90917457 59.32755157 8.91456985 61.53234291 C8.93619943 70.70356651 8.95493619 79.87478834 8.96619225 89.046031 C8.9824316 102.1913487 9.01560837 115.33637083 9.07259309 128.4815771 C9.11129069 137.72329978 9.13082475 146.96494339 9.13611281 156.20674497 C9.13976656 161.72691985 9.1517907 167.24677949 9.18421555 172.76686668 C9.21429263 177.96176745 9.22060912 183.15616218 9.20883179 188.35113144 C9.20861102 190.25544814 9.21691846 192.15978829 9.23448563 194.06402397 C9.25720834 196.66940303 9.24886871 199.2729519 9.23300171 201.87834167 C9.2468838 202.62729129 9.26076588 203.37624092 9.27506864 204.14788598 C9.18831099 209.95206453 7.19262895 213.83914728 3.625 218.375 C-1.24713738 222.89912757 -5.24817419 223.80568359 -11.73828125 223.7109375 C-16.05323022 223.16118104 -19.37329547 221.52089121 -22.375 218.375 C-25.83470789 212.89429369 -26.96020817 208.28946249 -26.8896637 201.87402344 C-26.89660922 201.05612209 -26.90355475 200.23822075 -26.91071075 199.39553452 C-26.92890046 196.67486465 -26.91873917 193.95507472 -26.90844727 191.234375 C-26.91550975 189.27575024 -26.92425615 187.31713093 -26.93455505 185.35852051 C-26.95702018 180.05275142 -26.95411621 174.74728103 -26.94523358 169.44148254 C-26.94011718 165.00798907 -26.94742146 160.57455141 -26.95470566 156.14106369 C-26.9716951 145.68123224 -26.96814787 135.22154673 -26.95141602 124.76171875 C-26.93448887 113.9779426 -26.95033972 103.19457106 -26.9826389 92.41083908 C-27.00934255 83.14350773 -27.01660888 73.87630227 -27.00812382 64.60893631 C-27.00319773 59.07770047 -27.00539343 53.54670815 -27.02591133 48.01550293 C-27.0442809 42.81473198 -27.03829382 37.61454288 -27.01371193 32.4138031 C-27.00870845 30.50789174 -27.01218174 28.60193594 -27.02486038 26.69606018 C-27.04083039 24.0887003 -27.02580427 21.48324739 -27.00318909 18.87597656 C-27.01502482 18.12654659 -27.02686054 17.37711662 -27.03905493 16.60497665 C-26.93783049 10.83829818 -25.00190685 6.84074147 -21.375 2.375 C-15.34403893 -2.92841139 -7.13733632 -3.43649526 0 0 Z " fill="#56748C" transform="translate(438.375,43.625)"/>
<path d="M0 0 C11.88 0 23.76 0 36 0 C36 14.85 36 29.7 36 45 C11.58 45 -12.84 45 -38 45 C-38 47.31 -38 49.62 -38 52 C-42.95 52.33 -47.9 52.66 -53 53 C-53 50.36 -53 47.72 -53 45 C-86.99 45 -120.98 45 -156 45 C-156.66 40.71 -157.32 36.42 -158 32 C-158.66 30.68 -159.32 29.36 -160 28 C-160 27.01 -160 26.02 -160 25 C-153.375 21 -153.375 21 -150 21 C-148.7109375 22.5390625 -148.7109375 22.5390625 -147.375 24.625 C-142.99859739 30.76502755 -136.4832739 35.53269139 -129 37 C-119.59760146 37.89948207 -110.53231156 36.75947742 -102.57421875 31.3515625 C-98.95262232 28.31922033 -96.08492561 25.30015908 -94 21 C-91.04639243 21.63433183 -88.60974276 22.59951825 -85.9375 24 C-78.47981477 27.89345563 -70.34523201 28.21051639 -62.13671875 26.3515625 C-56.0350888 24.13106264 -51.57200082 20.54645891 -47 16 C-44.62796641 16.91820655 -42.30450837 17.84011785 -40.05078125 19.0234375 C-32.55251159 22.81968893 -25.41222469 23.16806102 -17.3125 20.9375 C-12.05592497 18.88752977 -8.8476753 16.16831491 -5 12 C-2.525 6.06 -2.525 6.06 0 0 Z " fill="#C3D7EA" transform="translate(361,132)"/>
<path d="M0 0 C44.88 0 89.76 0 136 0 C136 5.28 136 10.56 136 16 C125.11 16 114.22 16 103 16 C103 15.67 103 15.34 103 15 C113.56 15 124.12 15 135 15 C135 10.38 135 5.76 135 1 C90.78 1 46.56 1 1 1 C1 18.16 1 35.32 1 53 C39.61 53 78.22 53 118 53 C118 55.64 118 58.28 118 61 C123.61 61 129.22 61 135 61 C135 68.26 135 75.52 135 83 C137.64 83 140.28 83 143 83 C143 83.33 143 83.66 143 84 C93.5 84 44 84 -7 84 C-7 83.67 -7 83.34 -7 83 C-4.69 83 -2.38 83 0 83 C0 55.61 0 28.22 0 0 Z " fill="#EBCBA1" transform="translate(192,402)"/>
<path d="M0 0 C0.33 0 0.66 0 1 0 C1.33 16.17 1.66 32.34 2 49 C7.48553085 51.74276542 9.06384323 52.37543257 14.75537109 52.38095093 C15.40963263 52.3856309 16.06389416 52.39031087 16.7379818 52.39513266 C18.91667707 52.40703928 21.09473825 52.39764302 23.2734375 52.38818359 C24.84092575 52.39225124 26.40841114 52.39759421 27.97589111 52.40411377 C32.22380884 52.41777024 36.47150755 52.41249565 40.71942902 52.40297651 C45.16891563 52.39537126 49.61838373 52.40242793 54.06787109 52.40713501 C61.5394222 52.41259004 69.01088429 52.40540758 76.48242188 52.39111328 C85.11553011 52.37478724 93.74842577 52.38007593 102.38152885 52.3965925 C109.79911046 52.41021456 117.21662814 52.4121235 124.63421822 52.40427649 C129.06206877 52.39960394 133.48981947 52.39896363 137.91766357 52.40888596 C142.08083782 52.41756384 146.24373849 52.4115188 150.40688324 52.39420319 C151.93306779 52.39024272 153.45927544 52.39136487 154.98545074 52.39799118 C157.07215231 52.40621459 159.15798255 52.39587683 161.24462891 52.38095093 C162.41120026 52.37981985 163.57777161 52.37868877 164.7796936 52.37752342 C168.62708704 52.1114932 168.62708704 52.1114932 174 49 C174.33 32.83 174.66 16.66 175 0 C175.33 0 175.66 0 176 0 C176.0928245 8.50165072 176.16382753 17.00308845 176.20724869 25.50512123 C176.22809247 29.45330373 176.25635049 33.40113863 176.30175781 37.34912109 C176.34533152 41.16169001 176.36916124 44.97392532 176.37950897 48.78672409 C176.38687981 50.23876571 176.40127356 51.69078979 176.42292023 53.14268875 C176.45210976 55.18227333 176.45594986 57.22049289 176.45410156 59.26025391 C176.46298401 60.41941315 176.47186646 61.57857239 176.48101807 62.77285767 C175.70188361 68.00005796 173.37158979 70.92385088 169.26605606 74.14505196 C165.60338719 76.22525521 163.57172584 76.50239694 159.39648438 76.50793457 C157.42820679 76.52485352 157.42820679 76.52485352 155.42016602 76.54211426 C153.97802512 76.5343381 152.53588642 76.52614549 151.09375 76.51757812 C149.56566705 76.5230019 148.03758934 76.530126 146.50952148 76.53881836 C142.36897921 76.55702444 138.22883645 76.54999557 134.08828735 76.53730202 C129.75090474 76.52716021 125.41355586 76.53657097 121.07617188 76.54284668 C113.79290641 76.55011965 106.5098033 76.54054461 99.2265625 76.52148438 C90.81152078 76.49971624 82.39686674 76.50676787 73.98183441 76.52879 C66.75107256 76.54695401 59.52042727 76.54949744 52.28964996 76.53903532 C47.97355293 76.53280587 43.657638 76.53194959 39.34155273 76.54518127 C35.28335462 76.5567538 31.22565533 76.54868885 27.16751099 76.52560425 C25.68003161 76.52032459 24.19251011 76.52181827 22.70504761 76.53065491 C20.67121908 76.5416215 18.63729859 76.52541659 16.60351562 76.50793457 C15.46644165 76.50642647 14.32936768 76.50491837 13.15783691 76.50336456 C8.00534565 75.68204871 4.92593353 73.11618015 1.65338135 69.17123413 C-0.23642638 65.54652723 -0.48526348 63.32688436 -0.45410156 59.26025391 C-0.45468567 58.61564209 -0.45526978 57.97103027 -0.45587158 57.30688477 C-0.45310575 55.19621126 -0.42208975 53.08698632 -0.390625 50.9765625 C-0.38315715 49.50540946 -0.37746679 48.03424641 -0.37347412 46.56307983 C-0.35826027 42.70607653 -0.31901638 38.84968346 -0.2746582 34.99291992 C-0.23361292 31.05135348 -0.21544345 27.10968767 -0.1953125 23.16796875 C-0.15251691 15.44503543 -0.08431854 7.72260348 0 0 Z " fill="#E95272" transform="translate(172,312)"/>
<path d="M0 0 C48.51 0.33 97.02 0.66 147 1 C144.525 5.455 144.525 5.455 142 10 C141.67 14.29 141.34 18.58 141 23 C117.9 23 94.8 23 71 23 C71 25.64 71 28.28 71 31 C66.05 31 61.1 31 56 31 C56 28.36 56 25.72 56 23 C39.83 23 23.66 23 7 23 C6.67 17.39 6.34 11.78 6 6 C4.02 4.35 2.04 2.7 0 1 C0 0.67 0 0.34 0 0 Z " fill="#F1D0A4" transform="translate(186,264)"/>
<path d="M0 0 C4.66897644 1.85643603 8.37338727 4.60898261 11.13687134 8.86645508 C13.15941652 13.86593104 12.56421255 19.59682816 12.53125 24.90234375 C12.53394836 26.26705705 12.53783364 27.63176846 12.54284668 28.99647522 C12.54872774 31.85029487 12.54022613 34.70361205 12.52148438 37.55737305 C12.49871621 41.20017823 12.51181146 44.84180302 12.53577423 48.48456478 C12.55028921 51.30120088 12.54560009 54.11756121 12.53526306 56.93420601 C12.53132783 58.92545978 12.54339567 60.91672462 12.55578613 62.90794373 C12.47422939 70.80829686 12.00185771 76.02435533 6.2109375 81.77734375 C0.89108814 85.13903579 -3.76009811 86.21826656 -10 85 C-16.22640509 82.57148805 -19.24444564 78.95199741 -22 73 C-23.01562583 69.95312251 -23.14441817 67.83667949 -23.17700195 64.64575195 C-23.18983719 63.55063797 -23.20267242 62.45552399 -23.21589661 61.32722473 C-23.22328354 60.14287338 -23.23067047 58.95852203 -23.23828125 57.73828125 C-23.246353 56.51852097 -23.25442474 55.29876068 -23.26274109 54.04203796 C-23.2765823 51.45715761 -23.28730428 48.87225897 -23.29516602 46.28735352 C-23.31235604 42.34551042 -23.35624132 38.40451087 -23.40039062 34.46289062 C-23.41051963 31.950527 -23.41903508 29.43815624 -23.42578125 26.92578125 C-23.44328934 25.75155106 -23.46079742 24.57732086 -23.47883606 23.36750793 C-23.46054837 16.42344256 -22.75737307 11.89385941 -19 6 C-13.2067393 0.49640233 -7.88140024 -1.14789163 0 0 Z " fill="#FBE0BF" transform="translate(244,70)"/>
<path d="M0 0 C5.43894766 3.14566003 8.71060624 7.06150622 10.71875 13.0859375 C10.85145336 15.71181666 10.93093758 18.31030996 10.95703125 20.9375 C10.965103 21.71096771 10.97317474 22.48443542 10.98149109 23.28134155 C10.99531786 24.92044851 11.00604631 26.55958409 11.01391602 28.19873047 C11.02539848 29.86287972 11.04579086 31.52699323 11.07543945 33.19091797 C11.40137493 51.49064752 11.40137493 51.49064752 6.71875 58.0859375 C2.6923576 62.01167009 -1.30640169 64.36710278 -6.96875 64.5859375 C-12.83516219 64.46444376 -17.14230321 62.19949198 -21.28125 58.0859375 C-24.54501019 52.89523402 -24.76215501 48.53708883 -24.78515625 42.59375 C-24.79514145 41.68897919 -24.80512665 40.78420837 -24.81541443 39.85202026 C-24.83055326 37.94419913 -24.83764154 36.03629911 -24.8371582 34.12841797 C-24.84371553 31.22619358 -24.89822706 28.32740051 -24.95507812 25.42578125 C-24.96388254 23.56511577 -24.96983518 21.70443417 -24.97265625 19.84375 C-24.9942128 18.98516388 -25.01576935 18.12657776 -25.03797913 17.24197388 C-24.96409758 10.67099071 -22.84305194 6.78111971 -18.28125 2.0859375 C-12.94038785 -1.79832588 -6.14391312 -2.46177341 0 0 Z " fill="#FBE0BF" transform="translate(296.28125,80.9140625)"/>
<path d="M0 0 C4.33337861 2.76598635 7.20976504 5.12554995 9.44921875 9.8359375 C9.89525957 12.89535 9.89352832 15.92388882 9.8828125 19.01171875 C9.88805435 19.89570847 9.8932962 20.77969818 9.8986969 21.69047546 C9.90510677 23.55723015 9.90379351 25.42402528 9.89526367 27.29077148 C9.88677736 30.12883578 9.91549021 32.96486992 9.94726562 35.80273438 C9.94887856 37.62239523 9.94829834 39.44205962 9.9453125 41.26171875 C9.96216347 42.52149284 9.96216347 42.52149284 9.97935486 43.80671692 C9.91236934 49.54852324 8.77997727 54.08026589 5.44921875 58.8359375 C0.41196522 62.8451801 -3.80508373 64.24943536 -10.1328125 64.1875 C-15.16203391 63.45627233 -18.96338225 60.4762498 -22.42578125 56.8984375 C-25.33636728 51.56236311 -25.8792763 46.42107715 -25.921875 40.4375 C-25.93541771 39.24681412 -25.93541771 39.24681412 -25.94923401 38.03207397 C-25.96368184 36.35963683 -25.97260959 34.68714387 -25.97631836 33.01464844 C-25.9882157 30.47493021 -26.03745096 27.93764409 -26.08789062 25.3984375 C-26.23883025 10.28239303 -26.23883025 10.28239303 -20.55078125 3.8359375 C-14.77895838 -1.52361231 -7.39122986 -3.3730268 0 0 Z " fill="#FBE0BF" transform="translate(196.55078125,81.1640625)"/>
<path d="M0 0 C13.86 0 27.72 0 42 0 C45.375 10.125 45.375 10.125 46 14 C45.50371094 14.268125 45.00742188 14.53625 44.49609375 14.8125 C35.49080686 20.0072006 29.73659898 26.87752636 27 37 C26.67 39.64 26.34 42.28 26 45 C17.42 45 8.84 45 0 45 C0 30.15 0 15.3 0 0 Z " fill="#E1EBF4" transform="translate(115,132)"/>
<path d="M0 0 C3.44380939 2.29587293 4.82851902 4.23705037 6.8125 7.875 C7.37279935 10.6952617 7.39772027 13.43937013 7.37890625 16.30859375 C7.38820412 17.50283714 7.38820412 17.50283714 7.39768982 18.72120667 C7.40476424 20.39786564 7.4016556 22.07459521 7.38891602 23.7512207 C7.37505557 26.30227289 7.40914345 28.849648 7.44726562 31.40039062 C7.44821705 33.03645922 7.44635671 34.67253237 7.44140625 36.30859375 C7.45466446 37.06297226 7.46792267 37.81735077 7.48158264 38.59458923 C7.38385527 44.21562124 5.69609924 47.79210894 1.8125 51.875 C-2.07821374 54.22990568 -5.70467367 54.27525235 -10.1875 53.875 C-14.4132098 52.05026168 -16.2422884 50.00557278 -18.1875 45.875 C-18.61790087 42.92421594 -18.60822021 40.00922582 -18.5859375 37.03125 C-18.58880768 36.18453735 -18.59167786 35.33782471 -18.59463501 34.4654541 C-18.59667104 32.68025033 -18.5911735 30.89502402 -18.57861328 29.10986328 C-18.56255262 26.38393062 -18.57847718 23.65948053 -18.59765625 20.93359375 C-18.59567374 19.19530924 -18.59182989 17.45702565 -18.5859375 15.71875 C-18.59201019 14.90716431 -18.59808289 14.09557861 -18.6043396 13.25939941 C-18.54713404 8.6359231 -18.14564976 5.64755727 -15.1875 1.875 C-10.33481472 -2.03410759 -5.76249324 -2.03382115 0 0 Z " fill="#FADFBE" transform="translate(340.1875,86.125)"/>
<path d="M0 0 C11.55 0 23.1 0 35 0 C35 7.59 35 15.18 35 23 C18.17 23 1.34 23 -16 23 C-14.8493096 19.5479288 -14.17942272 19.23424536 -11.25 17.3125 C-4.83484801 12.67933468 -2.47210912 7.41632735 0 0 Z " fill="#E1EBF4" transform="translate(361,132)"/>
<path d="M0 0 C0.33 0 0.66 0 1 0 C1.33 60.72 1.66 121.44 2 184 C9.83600108 187.91800054 14.48282487 190.11406088 23 189 C26.52948725 187.64023926 29.74199263 185.91094663 33 184 C33.66 183.67 34.32 183.34 35 183 C35.80522233 201.43064445 35.80522233 201.43064445 31 207 C25.59280421 211.30368644 21.25125788 212.35390656 14.50390625 212.28515625 C9.21056967 211.68232697 5.33572932 207.93139527 2 204 C-0.23065031 199.68043631 -0.27697221 195.59912521 -0.24050903 190.84391785 C-0.24221788 190.0270188 -0.24392673 189.21011976 -0.24568737 188.3684662 C-0.2489791 185.6338196 -0.23798378 182.89941888 -0.22705078 180.16479492 C-0.2264866 178.20349127 -0.22680336 176.2421872 -0.22793579 174.28088379 C-0.22851003 168.95693254 -0.21674414 163.63307125 -0.20278788 158.30914092 C-0.19029243 152.74510513 -0.18911095 147.18106731 -0.18673706 141.61701965 C-0.18051881 131.08091599 -0.1641033 120.54485378 -0.14403808 110.00876838 C-0.12168983 98.0137232 -0.11068835 86.01867605 -0.10064721 74.02361524 C-0.0797374 49.34905383 -0.04455469 24.67452924 0 0 Z " fill="#4A6176" transform="translate(65,55)"/>
<path d="M0 0 C0.33 0 0.66 0 1 0 C1.1168206 25.8081551 1.2049821 51.61627056 1.25906086 77.42463684 C1.28483839 89.4080184 1.31998058 101.39123563 1.37719727 113.37451172 C1.42704569 123.81958692 1.45929429 134.26454311 1.47044247 144.70973396 C1.47695872 150.24002948 1.49226485 155.76998454 1.52865028 161.3001709 C1.56263221 166.50732429 1.57304838 171.71399755 1.56553841 176.9212513 C1.56691196 178.83041049 1.57683122 180.73958603 1.59602737 182.64864922 C1.62100038 185.26073613 1.61489047 187.87102351 1.60127258 190.4831543 C1.62311889 191.60964827 1.62311889 191.60964827 1.64540654 192.75889969 C1.56381108 198.57104495 -0.42591741 202.45865977 -4 207 C-8.87213738 211.52412757 -12.87317419 212.43068359 -19.36328125 212.3359375 C-24.50125291 211.68132185 -27.98172692 209.26343054 -31.3828125 205.44921875 C-35.54575083 198.88458523 -34.32522847 190.44411834 -34 183 C-33.09507812 183.52400391 -33.09507812 183.52400391 -32.171875 184.05859375 C-31.37265625 184.51363281 -30.5734375 184.96867188 -29.75 185.4375 C-28.56664062 186.11619141 -28.56664062 186.11619141 -27.359375 186.80859375 C-22.43907089 189.2931844 -17.43293218 189.65748861 -12 189 C-8.85227083 187.92468879 -5.94022871 186.54781596 -3 185 C-2.34 184.67 -1.68 184.34 -1 184 C-0.67 123.28 -0.34 62.56 0 0 Z " fill="#4A6276" transform="translate(446,55)"/>
<path d="M0 0 C0.60328125 0.34933594 1.2065625 0.69867188 1.828125 1.05859375 C2.62734375 1.51363281 3.4265625 1.96867188 4.25 2.4375 C5.03890625 2.88996094 5.8278125 3.34242188 6.640625 3.80859375 C12.18703333 6.6093463 17.92591679 6.88610869 23.859375 5.17578125 C27.88999039 3.74160726 31.42897054 2.38068631 35 0 C35.92873053 18.16184149 35.92873053 18.16184149 31.60546875 23.55078125 C26.43733021 28.21593794 21.25268983 29.70111898 14.32421875 29.3828125 C8.13247763 28.36299631 4.54283462 23.75752078 1 19 C-0.25433458 15.23699626 -0.10695422 11.72789091 -0.0625 7.8125 C-0.05798828 7.06291016 -0.05347656 6.31332031 -0.04882812 5.54101562 C-0.03706354 3.69397617 -0.01912865 1.84697787 0 0 Z " fill="#4A6174" transform="translate(15,238)"/>
<path d="M0 0 C0.75023437 0.433125 1.50046875 0.86625 2.2734375 1.3125 C8.94534649 4.94255627 14.35867105 7.500752 22 6 C25.16035005 4.92498329 28.05809153 3.56825471 31 2 C32.33240997 1.3314898 33.66547193 0.66427182 35 0 C35.08152344 2.54232342 35.14073716 5.08199202 35.1875 7.625 C35.21263672 8.33785156 35.23777344 9.05070313 35.26367188 9.78515625 C35.34199089 15.47633789 34.26354763 19.54610859 30.28125 23.86328125 C29.6934375 24.34152344 29.105625 24.81976563 28.5 25.3125 C27.9121875 25.80363281 27.324375 26.29476563 26.71875 26.80078125 C22.34947108 29.84934631 17.09375912 29.65652895 12 29 C6.67318536 26.97635491 3.5234555 24.07039863 0.78076172 19.01733398 C-0.61629807 15.40760758 -0.42005216 11.87886294 -0.25 8.0625 C-0.23195313 7.28326172 -0.21390625 6.50402344 -0.1953125 5.70117188 C-0.14866383 3.80023869 -0.07693829 1.89994831 0 0 Z " fill="#4A6174" transform="translate(462,238)"/>
<path d="M0 0 C0.33 0 0.66 0 1 0 C1 7.59 1 15.18 1 23 C11.56 23 22.12 23 33 23 C31.35 26.63 29.7 30.26 28 34 C27.34 37.63 26.68 41.26 26 45 C17.42 45 8.84 45 0 45 C0 30.15 0 15.3 0 0 Z " fill="#C2D5E8" transform="translate(115,132)"/>
<path d="M0 0 C4.95 0 9.9 0 15 0 C15 4.95 15 9.9 15 15 C10.05 15 5.1 15 0 15 C0 10.05 0 5.1 0 0 Z " fill="#FFFEFD" transform="translate(265,418)"/>
<path d="M0 0 C4.95 0 9.9 0 15 0 C15 4.95 15 9.9 15 15 C10.05 15 5.1 15 0 15 C0 10.05 0 5.1 0 0 Z " fill="#FEFBFC" transform="translate(215,317)"/>
<path d="M0 0 C4.95 0 9.9 0 15 0 C15 4.95 15 9.9 15 15 C10.05 15 5.1 15 0 15 C0 10.05 0 5.1 0 0 Z " fill="#FEFBFC" transform="translate(185,317)"/>
<path d="M0 0 C3.5875213 1.33250791 6.8364623 2.830717 10 5 C10 5.66 10 6.32 10 7 C4.72 7 -0.56 7 -6 7 C-4.02 4.69 -2.04 2.38 0 0 Z " fill="#D9E4ED" transform="translate(314,148)"/>
</svg>
